G04 #@! TF.FileFunction,Copper,L2,Bot,Signal*
%FSLAX46Y46*%
G04 Gerber Fmt 4.6, Leading zero omitted, Abs format (unit mm)*
G04 Created by KiCad (PCBNEW 4.0.3+e1-6302~38~ubuntu16.04.1-stable) date Mon Aug 29 22:27:36 2016*
%MOMM*%
%LPD*%
G01*
G04 APERTURE LIST*
%ADD10C,0.100000*%
%ADD11C,1.501140*%
%ADD12R,1.200000X0.750000*%
%ADD13R,0.750000X1.200000*%
%ADD14R,1.727200X2.032000*%
%ADD15O,1.727200X2.032000*%
%ADD16R,0.800000X0.800000*%
%ADD17O,0.800000X0.800000*%
%ADD18R,0.797560X0.797560*%
%ADD19R,2.032000X2.032000*%
%ADD20O,2.032000X2.032000*%
%ADD21R,1.143000X0.508000*%
%ADD22R,0.508000X1.143000*%
%ADD23R,0.900000X1.200000*%
%ADD24R,1.200000X0.900000*%
%ADD25C,0.600000*%
%ADD26C,0.250000*%
%ADD27C,0.254000*%
G04 APERTURE END LIST*
D10*
D11*
X88900000Y-80545940D03*
X88900000Y-75664060D03*
D12*
X78425000Y-78740000D03*
X80325000Y-78740000D03*
D13*
X88900000Y-71440000D03*
X88900000Y-73340000D03*
D12*
X83500000Y-88900000D03*
X81600000Y-88900000D03*
D14*
X71120000Y-91440000D03*
D15*
X73660000Y-91440000D03*
X76200000Y-91440000D03*
X78740000Y-91440000D03*
X81280000Y-91440000D03*
X83820000Y-91440000D03*
X86360000Y-91440000D03*
X88900000Y-91440000D03*
D14*
X77470000Y-95250000D03*
D15*
X80010000Y-95250000D03*
X82550000Y-95250000D03*
X85090000Y-95250000D03*
X87630000Y-95250000D03*
X90170000Y-95250000D03*
D16*
X73025000Y-70485000D03*
D17*
X73025000Y-71735000D03*
D16*
X69215000Y-73025000D03*
D17*
X69215000Y-74275000D03*
D18*
X72910700Y-80010000D03*
X74409300Y-80010000D03*
D19*
X63500000Y-88900000D03*
D20*
X63500000Y-86360000D03*
D19*
X74930000Y-67310000D03*
D20*
X77470000Y-67310000D03*
D19*
X96520000Y-78740000D03*
D20*
X96520000Y-81280000D03*
D19*
X85090000Y-100330000D03*
D20*
X82550000Y-100330000D03*
D19*
X71120000Y-87630000D03*
D20*
X73660000Y-87630000D03*
D19*
X71120000Y-95250000D03*
D20*
X73660000Y-95250000D03*
D21*
X93345000Y-87630000D03*
X93345000Y-86360000D03*
X93345000Y-85090000D03*
X93345000Y-83820000D03*
X86995000Y-83820000D03*
X86995000Y-85090000D03*
X86995000Y-86360000D03*
X86995000Y-87630000D03*
D22*
X90805000Y-79375000D03*
X92075000Y-79375000D03*
X93345000Y-79375000D03*
X94615000Y-79375000D03*
X94615000Y-73025000D03*
X93345000Y-73025000D03*
X92075000Y-73025000D03*
X90805000Y-73025000D03*
D23*
X95885000Y-90000000D03*
X95885000Y-87800000D03*
D24*
X67140000Y-81280000D03*
X64940000Y-81280000D03*
D23*
X82550000Y-70315000D03*
X82550000Y-68115000D03*
X85090000Y-84920000D03*
X85090000Y-82720000D03*
D24*
X87800000Y-69215000D03*
X90000000Y-69215000D03*
D16*
X92075000Y-90170000D03*
D17*
X92075000Y-91420000D03*
D25*
X89535000Y-84455000D03*
X78105000Y-82550000D03*
X75565000Y-80010000D03*
X90805000Y-88900000D03*
X81280000Y-78740000D03*
X88265000Y-88900000D03*
X86360000Y-72390000D03*
X66040000Y-79375000D03*
X83820000Y-70485000D03*
X86995000Y-76835000D03*
X75184000Y-77724000D03*
X78105000Y-77470000D03*
X87630000Y-93345000D03*
X70485000Y-81915000D03*
X81280000Y-86995000D03*
X81915000Y-79375000D03*
X64770000Y-78740000D03*
X84455000Y-67310000D03*
X80645000Y-71755000D03*
X93980000Y-74930000D03*
X78740000Y-88265000D03*
X71120000Y-80645000D03*
X93345000Y-93345000D03*
X94615000Y-81915000D03*
D26*
X88900000Y-80545940D02*
X88900000Y-83820000D01*
X88900000Y-83820000D02*
X89535000Y-84455000D01*
X88900000Y-73340000D02*
X88900000Y-75664060D01*
X71120000Y-87630000D02*
X71120000Y-91440000D01*
X86995000Y-86360000D02*
X86995000Y-87630000D01*
X74409300Y-80010000D02*
X75565000Y-80010000D01*
X82550000Y-82550000D02*
X84920000Y-84920000D01*
X78105000Y-82550000D02*
X82550000Y-82550000D01*
X84920000Y-84920000D02*
X85090000Y-84920000D01*
X95885000Y-87800000D02*
X95080000Y-87800000D01*
X93980000Y-88900000D02*
X90805000Y-88900000D01*
X95080000Y-87800000D02*
X93980000Y-88900000D01*
X81280000Y-78740000D02*
X80325000Y-78740000D01*
X75184000Y-77724000D02*
X75184000Y-79235300D01*
X75184000Y-79235300D02*
X74409300Y-80010000D01*
X87800000Y-69215000D02*
X87800000Y-70340000D01*
X87800000Y-70340000D02*
X88900000Y-71440000D01*
X88265000Y-88900000D02*
X86995000Y-87630000D01*
X88900000Y-71440000D02*
X89220000Y-71440000D01*
X89220000Y-71440000D02*
X90805000Y-73025000D01*
X86360000Y-72390000D02*
X86360000Y-73025000D01*
X86995000Y-73660000D02*
X86995000Y-76835000D01*
X86360000Y-73025000D02*
X86995000Y-73660000D01*
X92075000Y-73025000D02*
X93345000Y-73025000D01*
X93345000Y-73025000D02*
X90805000Y-73025000D01*
X90805000Y-73025000D02*
X90170000Y-72390000D01*
X90170000Y-72390000D02*
X86360000Y-72390000D01*
X85090000Y-84920000D02*
X85090000Y-85725000D01*
X85090000Y-85725000D02*
X86995000Y-87630000D01*
X86995000Y-85090000D02*
X86995000Y-87630000D01*
X86995000Y-76835000D02*
X86995000Y-78105000D01*
X86995000Y-78105000D02*
X87630000Y-78740000D01*
X87630000Y-78740000D02*
X87630000Y-81280000D01*
X87630000Y-81280000D02*
X88265000Y-81915000D01*
X88265000Y-81915000D02*
X88265000Y-84455000D01*
X88265000Y-84455000D02*
X87630000Y-85090000D01*
X87630000Y-85090000D02*
X86995000Y-85090000D01*
X67140000Y-81280000D02*
X67140000Y-80475000D01*
X67140000Y-80475000D02*
X66040000Y-79375000D01*
X82550000Y-70315000D02*
X83650000Y-70315000D01*
X83650000Y-70315000D02*
X83820000Y-70485000D01*
X69215000Y-74275000D02*
X73767000Y-74275000D01*
X75184000Y-75692000D02*
X75184000Y-77724000D01*
X73767000Y-74275000D02*
X75184000Y-75692000D01*
X73660000Y-95250000D02*
X80010000Y-95250000D01*
X73660000Y-87630000D02*
X73660000Y-95250000D01*
X78425000Y-77790000D02*
X78425000Y-78740000D01*
X78105000Y-77470000D02*
X78425000Y-77790000D01*
X83500000Y-88900000D02*
X85725000Y-88900000D01*
X87630000Y-90805000D02*
X87630000Y-93345000D01*
X85725000Y-88900000D02*
X87630000Y-90805000D01*
X81280000Y-86995000D02*
X81280000Y-88580000D01*
X81280000Y-88580000D02*
X81600000Y-88900000D01*
X73025000Y-81915000D02*
X70485000Y-81915000D01*
X78105000Y-86995000D02*
X73025000Y-81915000D01*
X81280000Y-86995000D02*
X78105000Y-86995000D01*
X64770000Y-78740000D02*
X66675000Y-78740000D01*
X78105000Y-79375000D02*
X81915000Y-79375000D01*
X76200000Y-81280000D02*
X78105000Y-79375000D01*
X69215000Y-81280000D02*
X76200000Y-81280000D01*
X66675000Y-78740000D02*
X69215000Y-81280000D01*
X64940000Y-81280000D02*
X64940000Y-78910000D01*
X64940000Y-78910000D02*
X64770000Y-78740000D01*
X95885000Y-90000000D02*
X92245000Y-90000000D01*
X92245000Y-90000000D02*
X92075000Y-90170000D01*
X82550000Y-68115000D02*
X83650000Y-68115000D01*
X83650000Y-68115000D02*
X84455000Y-67310000D01*
X85090000Y-82720000D02*
X85895000Y-82720000D01*
X85895000Y-82720000D02*
X86995000Y-83820000D01*
X86995000Y-82550000D02*
X86995000Y-83820000D01*
X85090000Y-80645000D02*
X86995000Y-82550000D01*
X85090000Y-71755000D02*
X85090000Y-80645000D01*
X80645000Y-71755000D02*
X85090000Y-71755000D01*
X94615000Y-73025000D02*
X94615000Y-72390000D01*
X91905000Y-71120000D02*
X90000000Y-69215000D01*
X93345000Y-71120000D02*
X91905000Y-71120000D01*
X94615000Y-72390000D02*
X93345000Y-71120000D01*
X94615000Y-73025000D02*
X94615000Y-74295000D01*
X94615000Y-74295000D02*
X93980000Y-74930000D01*
X78740000Y-88265000D02*
X78740000Y-91440000D01*
X71120000Y-95250000D02*
X71120000Y-98425000D01*
X78105000Y-99695000D02*
X80010000Y-101600000D01*
X72390000Y-99695000D02*
X78105000Y-99695000D01*
X71120000Y-98425000D02*
X72390000Y-99695000D01*
X63500000Y-88900000D02*
X63500000Y-92075000D01*
X83185000Y-102235000D02*
X85090000Y-100330000D01*
X80645000Y-102235000D02*
X83185000Y-102235000D01*
X80010000Y-101600000D02*
X80645000Y-102235000D01*
X76200000Y-101600000D02*
X80010000Y-101600000D01*
X74930000Y-100330000D02*
X76200000Y-101600000D01*
X71755000Y-100330000D02*
X74930000Y-100330000D01*
X69850000Y-98425000D02*
X71755000Y-100330000D01*
X68580000Y-98425000D02*
X69850000Y-98425000D01*
X64770000Y-94615000D02*
X68580000Y-98425000D01*
X64770000Y-93345000D02*
X64770000Y-94615000D01*
X63500000Y-92075000D02*
X64770000Y-93345000D01*
X71755000Y-80010000D02*
X72910700Y-80010000D01*
X71120000Y-80645000D02*
X71755000Y-80010000D01*
X93345000Y-83820000D02*
X93345000Y-87630000D01*
X96520000Y-81280000D02*
X96520000Y-85090000D01*
X93980000Y-87630000D02*
X93345000Y-87630000D01*
X96520000Y-85090000D02*
X93980000Y-87630000D01*
X90805000Y-79375000D02*
X90805000Y-80010000D01*
X82550000Y-97790000D02*
X82550000Y-100330000D01*
X88900000Y-97790000D02*
X82550000Y-97790000D01*
X88900000Y-93345000D02*
X88900000Y-97790000D01*
X93345000Y-93345000D02*
X88900000Y-93345000D01*
X92710000Y-81915000D02*
X94615000Y-81915000D01*
X90805000Y-80010000D02*
X92710000Y-81915000D01*
D27*
G36*
X87138539Y-66610184D02*
X89395698Y-68118369D01*
X89164683Y-68161838D01*
X88948559Y-68300910D01*
X88803569Y-68513110D01*
X88752560Y-68765000D01*
X88752560Y-69665000D01*
X88796838Y-69900317D01*
X88935910Y-70116441D01*
X89148110Y-70261431D01*
X89400000Y-70312440D01*
X90022638Y-70312440D01*
X91367599Y-71657401D01*
X91614161Y-71822148D01*
X91905000Y-71880000D01*
X93030198Y-71880000D01*
X93713560Y-72563362D01*
X93713560Y-73596500D01*
X93757838Y-73831817D01*
X93853977Y-73981221D01*
X93840320Y-73994878D01*
X93794833Y-73994838D01*
X93451057Y-74136883D01*
X93187808Y-74399673D01*
X93045162Y-74743201D01*
X93044838Y-75115167D01*
X93186883Y-75458943D01*
X93449673Y-75722192D01*
X93793201Y-75864838D01*
X94165167Y-75865162D01*
X94508943Y-75723117D01*
X94772192Y-75460327D01*
X94914838Y-75116799D01*
X94914879Y-75069923D01*
X95152401Y-74832401D01*
X95317148Y-74585839D01*
X95375000Y-74295000D01*
X95375000Y-73980740D01*
X95391973Y-73955900D01*
X97219816Y-76691461D01*
X97296417Y-77076560D01*
X95504000Y-77076560D01*
X95268683Y-77120838D01*
X95052559Y-77259910D01*
X94907569Y-77472110D01*
X94856560Y-77724000D01*
X94856560Y-78156060D01*
X94361000Y-78156060D01*
X94125683Y-78200338D01*
X93979093Y-78294666D01*
X93850890Y-78207069D01*
X93599000Y-78156060D01*
X93091000Y-78156060D01*
X92855683Y-78200338D01*
X92709093Y-78294666D01*
X92580890Y-78207069D01*
X92329000Y-78156060D01*
X91821000Y-78156060D01*
X91585683Y-78200338D01*
X91439093Y-78294666D01*
X91310890Y-78207069D01*
X91059000Y-78156060D01*
X90551000Y-78156060D01*
X90315683Y-78200338D01*
X90099559Y-78339410D01*
X89954569Y-78551610D01*
X89903560Y-78803500D01*
X89903560Y-79590049D01*
X89685887Y-79371996D01*
X89176816Y-79160611D01*
X88625602Y-79160130D01*
X88116163Y-79370626D01*
X87726056Y-79760053D01*
X87514671Y-80269124D01*
X87514190Y-80820338D01*
X87724686Y-81329777D01*
X88114113Y-81719884D01*
X88140000Y-81730633D01*
X88140000Y-83284587D01*
X88030590Y-83114559D01*
X87818390Y-82969569D01*
X87755000Y-82956732D01*
X87755000Y-82550000D01*
X87697148Y-82259161D01*
X87532401Y-82012599D01*
X85850000Y-80330198D01*
X85850000Y-75938458D01*
X87514190Y-75938458D01*
X87724686Y-76447897D01*
X88114113Y-76838004D01*
X88623184Y-77049389D01*
X89174398Y-77049870D01*
X89683837Y-76839374D01*
X90073944Y-76449947D01*
X90285329Y-75940876D01*
X90285810Y-75389662D01*
X90075314Y-74880223D01*
X89685887Y-74490116D01*
X89660000Y-74479367D01*
X89660000Y-74446844D01*
X89726441Y-74404090D01*
X89871431Y-74191890D01*
X89922440Y-73940000D01*
X89922440Y-72740000D01*
X89878162Y-72504683D01*
X89739090Y-72288559D01*
X89526890Y-72143569D01*
X89275000Y-72092560D01*
X88525000Y-72092560D01*
X88289683Y-72136838D01*
X88073559Y-72275910D01*
X87928569Y-72488110D01*
X87877560Y-72740000D01*
X87877560Y-73940000D01*
X87921838Y-74175317D01*
X88060910Y-74391441D01*
X88140000Y-74445481D01*
X88140000Y-74478897D01*
X88116163Y-74488746D01*
X87726056Y-74878173D01*
X87514671Y-75387244D01*
X87514190Y-75938458D01*
X85850000Y-75938458D01*
X85850000Y-71755000D01*
X85792148Y-71464161D01*
X85627401Y-71217599D01*
X85380839Y-71052852D01*
X85090000Y-70995000D01*
X81207463Y-70995000D01*
X81175327Y-70962808D01*
X80831799Y-70820162D01*
X80459833Y-70819838D01*
X80116057Y-70961883D01*
X79852808Y-71224673D01*
X79710162Y-71568201D01*
X79709838Y-71940167D01*
X79851883Y-72283943D01*
X80114673Y-72547192D01*
X80458201Y-72689838D01*
X80830167Y-72690162D01*
X81173943Y-72548117D01*
X81207118Y-72515000D01*
X84330000Y-72515000D01*
X84330000Y-80645000D01*
X84387852Y-80935839D01*
X84552599Y-81182401D01*
X84842758Y-81472560D01*
X84640000Y-81472560D01*
X84404683Y-81516838D01*
X84188559Y-81655910D01*
X84043569Y-81868110D01*
X83992560Y-82120000D01*
X83992560Y-83320000D01*
X84036838Y-83555317D01*
X84175910Y-83771441D01*
X84388110Y-83916431D01*
X84640000Y-83967440D01*
X85540000Y-83967440D01*
X85775317Y-83923162D01*
X85776060Y-83922684D01*
X85776060Y-84074000D01*
X85820338Y-84309317D01*
X85959410Y-84525441D01*
X86171610Y-84670431D01*
X86423500Y-84721440D01*
X87566500Y-84721440D01*
X87801817Y-84677162D01*
X88017941Y-84538090D01*
X88162931Y-84325890D01*
X88204473Y-84120748D01*
X88362599Y-84357401D01*
X88599878Y-84594680D01*
X88599838Y-84640167D01*
X88741883Y-84983943D01*
X89004673Y-85247192D01*
X89348201Y-85389838D01*
X89720167Y-85390162D01*
X90063943Y-85248117D01*
X90327192Y-84985327D01*
X90469838Y-84641799D01*
X90470162Y-84269833D01*
X90328117Y-83926057D01*
X90065327Y-83662808D01*
X89721799Y-83520162D01*
X89674923Y-83520121D01*
X89660000Y-83505198D01*
X89660000Y-81731103D01*
X89683837Y-81721254D01*
X90073944Y-81331827D01*
X90285329Y-80822756D01*
X90285554Y-80565356D01*
X92172599Y-82452401D01*
X92419161Y-82617148D01*
X92710000Y-82675000D01*
X94052537Y-82675000D01*
X94084673Y-82707192D01*
X94428201Y-82849838D01*
X94800167Y-82850162D01*
X95143943Y-82708117D01*
X95364616Y-82487829D01*
X95760000Y-82752016D01*
X95760000Y-84775198D01*
X94542602Y-85992596D01*
X94519662Y-85870683D01*
X94425334Y-85724093D01*
X94512931Y-85595890D01*
X94563940Y-85344000D01*
X94563940Y-84836000D01*
X94519662Y-84600683D01*
X94425334Y-84454093D01*
X94512931Y-84325890D01*
X94563940Y-84074000D01*
X94563940Y-83566000D01*
X94519662Y-83330683D01*
X94380590Y-83114559D01*
X94168390Y-82969569D01*
X93916500Y-82918560D01*
X92773500Y-82918560D01*
X92538183Y-82962838D01*
X92322059Y-83101910D01*
X92177069Y-83314110D01*
X92126060Y-83566000D01*
X92126060Y-84074000D01*
X92170338Y-84309317D01*
X92264666Y-84455907D01*
X92177069Y-84584110D01*
X92126060Y-84836000D01*
X92126060Y-85344000D01*
X92170338Y-85579317D01*
X92264666Y-85725907D01*
X92177069Y-85854110D01*
X92126060Y-86106000D01*
X92126060Y-86614000D01*
X92170338Y-86849317D01*
X92264666Y-86995907D01*
X92177069Y-87124110D01*
X92126060Y-87376000D01*
X92126060Y-87884000D01*
X92170338Y-88119317D01*
X92309410Y-88335441D01*
X92521610Y-88480431D01*
X92773500Y-88531440D01*
X93916500Y-88531440D01*
X94151817Y-88487162D01*
X94367941Y-88348090D01*
X94469558Y-88199369D01*
X94517401Y-88167401D01*
X97057401Y-85627401D01*
X97222148Y-85380840D01*
X97248732Y-85247192D01*
X97280000Y-85090000D01*
X97280000Y-82752016D01*
X97687433Y-82479778D01*
X98045325Y-81944155D01*
X98154984Y-81392865D01*
X98637771Y-83820000D01*
X97219816Y-90948539D01*
X93181823Y-96991823D01*
X87138539Y-101029816D01*
X86753440Y-101106417D01*
X86753440Y-99314000D01*
X86709162Y-99078683D01*
X86570090Y-98862559D01*
X86357890Y-98717569D01*
X86106000Y-98666560D01*
X84074000Y-98666560D01*
X83838683Y-98710838D01*
X83622559Y-98849910D01*
X83515767Y-99006206D01*
X83310000Y-98868717D01*
X83310000Y-98550000D01*
X88900000Y-98550000D01*
X89190839Y-98492148D01*
X89437401Y-98327401D01*
X89602148Y-98080839D01*
X89660000Y-97790000D01*
X89660000Y-96831900D01*
X90170000Y-96933345D01*
X90743489Y-96819271D01*
X91229670Y-96494415D01*
X91554526Y-96008234D01*
X91668600Y-95434745D01*
X91668600Y-95065255D01*
X91554526Y-94491766D01*
X91296097Y-94105000D01*
X92782537Y-94105000D01*
X92814673Y-94137192D01*
X93158201Y-94279838D01*
X93530167Y-94280162D01*
X93873943Y-94138117D01*
X94137192Y-93875327D01*
X94279838Y-93531799D01*
X94280162Y-93159833D01*
X94138117Y-92816057D01*
X93875327Y-92552808D01*
X93531799Y-92410162D01*
X93159833Y-92409838D01*
X92816057Y-92551883D01*
X92782882Y-92585000D01*
X90026097Y-92585000D01*
X90284526Y-92198234D01*
X90398600Y-91624745D01*
X90398600Y-91255255D01*
X90284526Y-90681766D01*
X89959670Y-90195585D01*
X89473489Y-89870729D01*
X88967090Y-89770000D01*
X91027560Y-89770000D01*
X91027560Y-90570000D01*
X91071838Y-90805317D01*
X91159881Y-90942140D01*
X91118785Y-91003646D01*
X91040000Y-91399723D01*
X91040000Y-91440277D01*
X91118785Y-91836354D01*
X91343144Y-92172133D01*
X91678923Y-92396492D01*
X92075000Y-92475277D01*
X92471077Y-92396492D01*
X92806856Y-92172133D01*
X93031215Y-91836354D01*
X93110000Y-91440277D01*
X93110000Y-91399723D01*
X93031215Y-91003646D01*
X92989698Y-90941511D01*
X93071431Y-90821890D01*
X93083964Y-90760000D01*
X94817666Y-90760000D01*
X94831838Y-90835317D01*
X94970910Y-91051441D01*
X95183110Y-91196431D01*
X95435000Y-91247440D01*
X96335000Y-91247440D01*
X96570317Y-91203162D01*
X96786441Y-91064090D01*
X96931431Y-90851890D01*
X96982440Y-90600000D01*
X96982440Y-89400000D01*
X96938162Y-89164683D01*
X96799090Y-88948559D01*
X96586890Y-88803569D01*
X96335000Y-88752560D01*
X95435000Y-88752560D01*
X95199683Y-88796838D01*
X94983559Y-88935910D01*
X94838569Y-89148110D01*
X94819961Y-89240000D01*
X92824115Y-89240000D01*
X92726890Y-89173569D01*
X92475000Y-89122560D01*
X91675000Y-89122560D01*
X91439683Y-89166838D01*
X91223559Y-89305910D01*
X91078569Y-89518110D01*
X91027560Y-89770000D01*
X88967090Y-89770000D01*
X88900000Y-89756655D01*
X88326511Y-89870729D01*
X87993225Y-90093423D01*
X86262401Y-88362599D01*
X86015839Y-88197852D01*
X85725000Y-88140000D01*
X84606844Y-88140000D01*
X84564090Y-88073559D01*
X84351890Y-87928569D01*
X84100000Y-87877560D01*
X82900000Y-87877560D01*
X82664683Y-87921838D01*
X82550022Y-87995620D01*
X82451890Y-87928569D01*
X82200000Y-87877560D01*
X82040000Y-87877560D01*
X82040000Y-87557463D01*
X82072192Y-87525327D01*
X82214838Y-87181799D01*
X82215162Y-86809833D01*
X82073117Y-86466057D01*
X81810327Y-86202808D01*
X81466799Y-86060162D01*
X81094833Y-86059838D01*
X80751057Y-86201883D01*
X80717882Y-86235000D01*
X78419802Y-86235000D01*
X74224802Y-82040000D01*
X76200000Y-82040000D01*
X76490839Y-81982148D01*
X76737401Y-81817401D01*
X78419802Y-80135000D01*
X81352537Y-80135000D01*
X81384673Y-80167192D01*
X81728201Y-80309838D01*
X82100167Y-80310162D01*
X82443943Y-80168117D01*
X82707192Y-79905327D01*
X82849838Y-79561799D01*
X82850162Y-79189833D01*
X82708117Y-78846057D01*
X82445327Y-78582808D01*
X82101799Y-78440162D01*
X81729833Y-78439838D01*
X81386057Y-78581883D01*
X81352882Y-78615000D01*
X79672440Y-78615000D01*
X79672440Y-78365000D01*
X79628162Y-78129683D01*
X79489090Y-77913559D01*
X79276890Y-77768569D01*
X79176701Y-77748280D01*
X79170591Y-77717560D01*
X79127148Y-77499160D01*
X79040089Y-77368867D01*
X79040162Y-77284833D01*
X78898117Y-76941057D01*
X78635327Y-76677808D01*
X78291799Y-76535162D01*
X77919833Y-76534838D01*
X77576057Y-76676883D01*
X77312808Y-76939673D01*
X77170162Y-77283201D01*
X77169838Y-77655167D01*
X77309883Y-77994103D01*
X77228569Y-78113110D01*
X77177560Y-78365000D01*
X77177560Y-79115000D01*
X77195398Y-79209800D01*
X75885198Y-80520000D01*
X73934397Y-80520000D01*
X73956920Y-80408780D01*
X73956920Y-79611220D01*
X73912642Y-79375903D01*
X73773570Y-79159779D01*
X73561370Y-79014789D01*
X73309480Y-78963780D01*
X72511920Y-78963780D01*
X72276603Y-79008058D01*
X72060479Y-79147130D01*
X71990191Y-79250000D01*
X71755000Y-79250000D01*
X71464161Y-79307852D01*
X71217599Y-79472599D01*
X70980320Y-79709878D01*
X70934833Y-79709838D01*
X70591057Y-79851883D01*
X70327808Y-80114673D01*
X70185162Y-80458201D01*
X70185108Y-80520000D01*
X69529802Y-80520000D01*
X67212401Y-78202599D01*
X66965839Y-78037852D01*
X66675000Y-77980000D01*
X65332463Y-77980000D01*
X65300327Y-77947808D01*
X64956799Y-77805162D01*
X64584833Y-77804838D01*
X64241057Y-77946883D01*
X63977808Y-78209673D01*
X63835162Y-78553201D01*
X63834838Y-78925167D01*
X63976883Y-79268943D01*
X64180000Y-79472415D01*
X64180000Y-80212666D01*
X64104683Y-80226838D01*
X63888559Y-80365910D01*
X63743569Y-80578110D01*
X63692560Y-80830000D01*
X63692560Y-81730000D01*
X63736838Y-81965317D01*
X63875910Y-82181441D01*
X64088110Y-82326431D01*
X64340000Y-82377440D01*
X65540000Y-82377440D01*
X65775317Y-82333162D01*
X65991441Y-82194090D01*
X66136431Y-81981890D01*
X66187440Y-81730000D01*
X66187440Y-80830000D01*
X66143162Y-80594683D01*
X66004090Y-80378559D01*
X65791890Y-80233569D01*
X65700000Y-80214961D01*
X65700000Y-79500000D01*
X66360198Y-79500000D01*
X68677599Y-81817401D01*
X68924160Y-81982148D01*
X68972414Y-81991746D01*
X69215000Y-82040000D01*
X69549890Y-82040000D01*
X69549838Y-82100167D01*
X69691883Y-82443943D01*
X69954673Y-82707192D01*
X70298201Y-82849838D01*
X70670167Y-82850162D01*
X71013943Y-82708117D01*
X71047118Y-82675000D01*
X72710198Y-82675000D01*
X77567599Y-87532401D01*
X77814161Y-87697148D01*
X77956947Y-87725550D01*
X77947808Y-87734673D01*
X77805162Y-88078201D01*
X77804838Y-88450167D01*
X77946883Y-88793943D01*
X77980000Y-88827118D01*
X77980000Y-89995352D01*
X77680330Y-90195585D01*
X77470000Y-90510366D01*
X77259670Y-90195585D01*
X76773489Y-89870729D01*
X76200000Y-89756655D01*
X75626511Y-89870729D01*
X75140330Y-90195585D01*
X74815474Y-90681766D01*
X74701400Y-91255255D01*
X74701400Y-91624745D01*
X74815474Y-92198234D01*
X75140330Y-92684415D01*
X75626511Y-93009271D01*
X76200000Y-93123345D01*
X76773489Y-93009271D01*
X77259670Y-92684415D01*
X77470000Y-92369634D01*
X77680330Y-92684415D01*
X78166511Y-93009271D01*
X78740000Y-93123345D01*
X79313489Y-93009271D01*
X79799670Y-92684415D01*
X80010000Y-92369634D01*
X80220330Y-92684415D01*
X80706511Y-93009271D01*
X81280000Y-93123345D01*
X81853489Y-93009271D01*
X82339670Y-92684415D01*
X82550000Y-92369634D01*
X82760330Y-92684415D01*
X83246511Y-93009271D01*
X83820000Y-93123345D01*
X84393489Y-93009271D01*
X84879670Y-92684415D01*
X85090000Y-92369634D01*
X85300330Y-92684415D01*
X85786511Y-93009271D01*
X86360000Y-93123345D01*
X86741114Y-93047537D01*
X86695162Y-93158201D01*
X86694838Y-93530167D01*
X86821838Y-93837532D01*
X86570330Y-94005585D01*
X86360000Y-94320366D01*
X86149670Y-94005585D01*
X85663489Y-93680729D01*
X85090000Y-93566655D01*
X84516511Y-93680729D01*
X84030330Y-94005585D01*
X83820000Y-94320366D01*
X83609670Y-94005585D01*
X83123489Y-93680729D01*
X82550000Y-93566655D01*
X81976511Y-93680729D01*
X81490330Y-94005585D01*
X81165474Y-94491766D01*
X81051400Y-95065255D01*
X81051400Y-95434745D01*
X81165474Y-96008234D01*
X81490330Y-96494415D01*
X81976511Y-96819271D01*
X82550000Y-96933345D01*
X83123489Y-96819271D01*
X83609670Y-96494415D01*
X83820000Y-96179634D01*
X84030330Y-96494415D01*
X84516511Y-96819271D01*
X85090000Y-96933345D01*
X85663489Y-96819271D01*
X86149670Y-96494415D01*
X86360000Y-96179634D01*
X86570330Y-96494415D01*
X87056511Y-96819271D01*
X87630000Y-96933345D01*
X88140000Y-96831900D01*
X88140000Y-97030000D01*
X82550000Y-97030000D01*
X82259161Y-97087852D01*
X82012599Y-97252599D01*
X81847852Y-97499161D01*
X81790000Y-97790000D01*
X81790000Y-98868717D01*
X81350222Y-99162567D01*
X80992330Y-99698190D01*
X80866655Y-100330000D01*
X80992330Y-100961810D01*
X81335233Y-101475000D01*
X80959802Y-101475000D01*
X78642401Y-99157599D01*
X78395839Y-98992852D01*
X78105000Y-98935000D01*
X72704802Y-98935000D01*
X71880000Y-98110198D01*
X71880000Y-96913440D01*
X72136000Y-96913440D01*
X72371317Y-96869162D01*
X72587441Y-96730090D01*
X72732431Y-96517890D01*
X72783440Y-96266000D01*
X72783440Y-94234000D01*
X72739162Y-93998683D01*
X72600090Y-93782559D01*
X72387890Y-93637569D01*
X72136000Y-93586560D01*
X70104000Y-93586560D01*
X69868683Y-93630838D01*
X69652559Y-93769910D01*
X69507569Y-93982110D01*
X69456560Y-94234000D01*
X69456560Y-96266000D01*
X69500838Y-96501317D01*
X69639910Y-96717441D01*
X69852110Y-96862431D01*
X70104000Y-96913440D01*
X70360000Y-96913440D01*
X70360000Y-97869290D01*
X70140839Y-97722852D01*
X69850000Y-97665000D01*
X68894802Y-97665000D01*
X65530000Y-94300198D01*
X65530000Y-93345000D01*
X65472148Y-93054161D01*
X65472148Y-93054160D01*
X65307401Y-92807599D01*
X64260000Y-91760198D01*
X64260000Y-90563440D01*
X64516000Y-90563440D01*
X64751317Y-90519162D01*
X64967441Y-90380090D01*
X65112431Y-90167890D01*
X65163440Y-89916000D01*
X65163440Y-87884000D01*
X65119162Y-87648683D01*
X64980090Y-87432559D01*
X64823794Y-87325767D01*
X65025325Y-87024155D01*
X65106910Y-86614000D01*
X69456560Y-86614000D01*
X69456560Y-88646000D01*
X69500838Y-88881317D01*
X69639910Y-89097441D01*
X69852110Y-89242431D01*
X70104000Y-89293440D01*
X70360000Y-89293440D01*
X70360000Y-89776560D01*
X70256400Y-89776560D01*
X70021083Y-89820838D01*
X69804959Y-89959910D01*
X69659969Y-90172110D01*
X69608960Y-90424000D01*
X69608960Y-92456000D01*
X69653238Y-92691317D01*
X69792310Y-92907441D01*
X70004510Y-93052431D01*
X70256400Y-93103440D01*
X71983600Y-93103440D01*
X72218917Y-93059162D01*
X72435041Y-92920090D01*
X72580031Y-92707890D01*
X72631040Y-92456000D01*
X72631040Y-90424000D01*
X72586762Y-90188683D01*
X72447690Y-89972559D01*
X72235490Y-89827569D01*
X71983600Y-89776560D01*
X71880000Y-89776560D01*
X71880000Y-89293440D01*
X72136000Y-89293440D01*
X72371317Y-89249162D01*
X72587441Y-89110090D01*
X72732431Y-88897890D01*
X72783440Y-88646000D01*
X72783440Y-86614000D01*
X72739162Y-86378683D01*
X72600090Y-86162559D01*
X72387890Y-86017569D01*
X72136000Y-85966560D01*
X70104000Y-85966560D01*
X69868683Y-86010838D01*
X69652559Y-86149910D01*
X69507569Y-86362110D01*
X69456560Y-86614000D01*
X65106910Y-86614000D01*
X65151000Y-86392345D01*
X65151000Y-86327655D01*
X65025325Y-85695845D01*
X64667433Y-85160222D01*
X64131810Y-84802330D01*
X63500000Y-84676655D01*
X62868190Y-84802330D01*
X62332567Y-85160222D01*
X61974675Y-85695845D01*
X61865016Y-86247135D01*
X61382229Y-83820000D01*
X62800184Y-76691461D01*
X65517306Y-72625000D01*
X68167560Y-72625000D01*
X68167560Y-73425000D01*
X68211838Y-73660317D01*
X68350910Y-73876441D01*
X68563110Y-74021431D01*
X68815000Y-74072440D01*
X69615000Y-74072440D01*
X69850317Y-74028162D01*
X70066441Y-73889090D01*
X70211431Y-73676890D01*
X70262440Y-73425000D01*
X70262440Y-72625000D01*
X70218162Y-72389683D01*
X70079090Y-72173559D01*
X69866890Y-72028569D01*
X69615000Y-71977560D01*
X68815000Y-71977560D01*
X68579683Y-72021838D01*
X68363559Y-72160910D01*
X68218569Y-72373110D01*
X68167560Y-72625000D01*
X65517306Y-72625000D01*
X66838177Y-70648177D01*
X67681031Y-70085000D01*
X71977560Y-70085000D01*
X71977560Y-70885000D01*
X72021838Y-71120317D01*
X72109881Y-71257140D01*
X72068785Y-71318646D01*
X71990000Y-71714723D01*
X71990000Y-71755277D01*
X72068785Y-72151354D01*
X72293144Y-72487133D01*
X72628923Y-72711492D01*
X73025000Y-72790277D01*
X73421077Y-72711492D01*
X73756856Y-72487133D01*
X73981215Y-72151354D01*
X74060000Y-71755277D01*
X74060000Y-71714723D01*
X73981215Y-71318646D01*
X73939698Y-71256511D01*
X74021431Y-71136890D01*
X74072440Y-70885000D01*
X74072440Y-70085000D01*
X74028162Y-69849683D01*
X73889090Y-69633559D01*
X73676890Y-69488569D01*
X73425000Y-69437560D01*
X72625000Y-69437560D01*
X72389683Y-69481838D01*
X72173559Y-69620910D01*
X72028569Y-69833110D01*
X71977560Y-70085000D01*
X67681031Y-70085000D01*
X72881461Y-66610184D01*
X73266560Y-66533583D01*
X73266560Y-68326000D01*
X73310838Y-68561317D01*
X73449910Y-68777441D01*
X73662110Y-68922431D01*
X73914000Y-68973440D01*
X75946000Y-68973440D01*
X76181317Y-68929162D01*
X76397441Y-68790090D01*
X76504233Y-68633794D01*
X76805845Y-68835325D01*
X77437655Y-68961000D01*
X77502345Y-68961000D01*
X78134155Y-68835325D01*
X78669778Y-68477433D01*
X79027670Y-67941810D01*
X79112567Y-67515000D01*
X81452560Y-67515000D01*
X81452560Y-68715000D01*
X81496838Y-68950317D01*
X81635910Y-69166441D01*
X81848110Y-69311431D01*
X82100000Y-69362440D01*
X83000000Y-69362440D01*
X83235317Y-69318162D01*
X83451441Y-69179090D01*
X83596431Y-68966890D01*
X83615039Y-68875000D01*
X83650000Y-68875000D01*
X83940839Y-68817148D01*
X84187401Y-68652401D01*
X84594680Y-68245122D01*
X84640167Y-68245162D01*
X84983943Y-68103117D01*
X85247192Y-67840327D01*
X85389838Y-67496799D01*
X85390162Y-67124833D01*
X85248117Y-66781057D01*
X84985327Y-66517808D01*
X84641799Y-66375162D01*
X84269833Y-66374838D01*
X83926057Y-66516883D01*
X83662808Y-66779673D01*
X83520162Y-67123201D01*
X83520138Y-67150660D01*
X83464090Y-67063559D01*
X83251890Y-66918569D01*
X83000000Y-66867560D01*
X82100000Y-66867560D01*
X81864683Y-66911838D01*
X81648559Y-67050910D01*
X81503569Y-67263110D01*
X81452560Y-67515000D01*
X79112567Y-67515000D01*
X79153345Y-67310000D01*
X79027670Y-66678190D01*
X78669778Y-66142567D01*
X78134155Y-65784675D01*
X77582865Y-65675016D01*
X80010000Y-65192229D01*
X87138539Y-66610184D01*
X87138539Y-66610184D01*
G37*
X87138539Y-66610184D02*
X89395698Y-68118369D01*
X89164683Y-68161838D01*
X88948559Y-68300910D01*
X88803569Y-68513110D01*
X88752560Y-68765000D01*
X88752560Y-69665000D01*
X88796838Y-69900317D01*
X88935910Y-70116441D01*
X89148110Y-70261431D01*
X89400000Y-70312440D01*
X90022638Y-70312440D01*
X91367599Y-71657401D01*
X91614161Y-71822148D01*
X91905000Y-71880000D01*
X93030198Y-71880000D01*
X93713560Y-72563362D01*
X93713560Y-73596500D01*
X93757838Y-73831817D01*
X93853977Y-73981221D01*
X93840320Y-73994878D01*
X93794833Y-73994838D01*
X93451057Y-74136883D01*
X93187808Y-74399673D01*
X93045162Y-74743201D01*
X93044838Y-75115167D01*
X93186883Y-75458943D01*
X93449673Y-75722192D01*
X93793201Y-75864838D01*
X94165167Y-75865162D01*
X94508943Y-75723117D01*
X94772192Y-75460327D01*
X94914838Y-75116799D01*
X94914879Y-75069923D01*
X95152401Y-74832401D01*
X95317148Y-74585839D01*
X95375000Y-74295000D01*
X95375000Y-73980740D01*
X95391973Y-73955900D01*
X97219816Y-76691461D01*
X97296417Y-77076560D01*
X95504000Y-77076560D01*
X95268683Y-77120838D01*
X95052559Y-77259910D01*
X94907569Y-77472110D01*
X94856560Y-77724000D01*
X94856560Y-78156060D01*
X94361000Y-78156060D01*
X94125683Y-78200338D01*
X93979093Y-78294666D01*
X93850890Y-78207069D01*
X93599000Y-78156060D01*
X93091000Y-78156060D01*
X92855683Y-78200338D01*
X92709093Y-78294666D01*
X92580890Y-78207069D01*
X92329000Y-78156060D01*
X91821000Y-78156060D01*
X91585683Y-78200338D01*
X91439093Y-78294666D01*
X91310890Y-78207069D01*
X91059000Y-78156060D01*
X90551000Y-78156060D01*
X90315683Y-78200338D01*
X90099559Y-78339410D01*
X89954569Y-78551610D01*
X89903560Y-78803500D01*
X89903560Y-79590049D01*
X89685887Y-79371996D01*
X89176816Y-79160611D01*
X88625602Y-79160130D01*
X88116163Y-79370626D01*
X87726056Y-79760053D01*
X87514671Y-80269124D01*
X87514190Y-80820338D01*
X87724686Y-81329777D01*
X88114113Y-81719884D01*
X88140000Y-81730633D01*
X88140000Y-83284587D01*
X88030590Y-83114559D01*
X87818390Y-82969569D01*
X87755000Y-82956732D01*
X87755000Y-82550000D01*
X87697148Y-82259161D01*
X87532401Y-82012599D01*
X85850000Y-80330198D01*
X85850000Y-75938458D01*
X87514190Y-75938458D01*
X87724686Y-76447897D01*
X88114113Y-76838004D01*
X88623184Y-77049389D01*
X89174398Y-77049870D01*
X89683837Y-76839374D01*
X90073944Y-76449947D01*
X90285329Y-75940876D01*
X90285810Y-75389662D01*
X90075314Y-74880223D01*
X89685887Y-74490116D01*
X89660000Y-74479367D01*
X89660000Y-74446844D01*
X89726441Y-74404090D01*
X89871431Y-74191890D01*
X89922440Y-73940000D01*
X89922440Y-72740000D01*
X89878162Y-72504683D01*
X89739090Y-72288559D01*
X89526890Y-72143569D01*
X89275000Y-72092560D01*
X88525000Y-72092560D01*
X88289683Y-72136838D01*
X88073559Y-72275910D01*
X87928569Y-72488110D01*
X87877560Y-72740000D01*
X87877560Y-73940000D01*
X87921838Y-74175317D01*
X88060910Y-74391441D01*
X88140000Y-74445481D01*
X88140000Y-74478897D01*
X88116163Y-74488746D01*
X87726056Y-74878173D01*
X87514671Y-75387244D01*
X87514190Y-75938458D01*
X85850000Y-75938458D01*
X85850000Y-71755000D01*
X85792148Y-71464161D01*
X85627401Y-71217599D01*
X85380839Y-71052852D01*
X85090000Y-70995000D01*
X81207463Y-70995000D01*
X81175327Y-70962808D01*
X80831799Y-70820162D01*
X80459833Y-70819838D01*
X80116057Y-70961883D01*
X79852808Y-71224673D01*
X79710162Y-71568201D01*
X79709838Y-71940167D01*
X79851883Y-72283943D01*
X80114673Y-72547192D01*
X80458201Y-72689838D01*
X80830167Y-72690162D01*
X81173943Y-72548117D01*
X81207118Y-72515000D01*
X84330000Y-72515000D01*
X84330000Y-80645000D01*
X84387852Y-80935839D01*
X84552599Y-81182401D01*
X84842758Y-81472560D01*
X84640000Y-81472560D01*
X84404683Y-81516838D01*
X84188559Y-81655910D01*
X84043569Y-81868110D01*
X83992560Y-82120000D01*
X83992560Y-83320000D01*
X84036838Y-83555317D01*
X84175910Y-83771441D01*
X84388110Y-83916431D01*
X84640000Y-83967440D01*
X85540000Y-83967440D01*
X85775317Y-83923162D01*
X85776060Y-83922684D01*
X85776060Y-84074000D01*
X85820338Y-84309317D01*
X85959410Y-84525441D01*
X86171610Y-84670431D01*
X86423500Y-84721440D01*
X87566500Y-84721440D01*
X87801817Y-84677162D01*
X88017941Y-84538090D01*
X88162931Y-84325890D01*
X88204473Y-84120748D01*
X88362599Y-84357401D01*
X88599878Y-84594680D01*
X88599838Y-84640167D01*
X88741883Y-84983943D01*
X89004673Y-85247192D01*
X89348201Y-85389838D01*
X89720167Y-85390162D01*
X90063943Y-85248117D01*
X90327192Y-84985327D01*
X90469838Y-84641799D01*
X90470162Y-84269833D01*
X90328117Y-83926057D01*
X90065327Y-83662808D01*
X89721799Y-83520162D01*
X89674923Y-83520121D01*
X89660000Y-83505198D01*
X89660000Y-81731103D01*
X89683837Y-81721254D01*
X90073944Y-81331827D01*
X90285329Y-80822756D01*
X90285554Y-80565356D01*
X92172599Y-82452401D01*
X92419161Y-82617148D01*
X92710000Y-82675000D01*
X94052537Y-82675000D01*
X94084673Y-82707192D01*
X94428201Y-82849838D01*
X94800167Y-82850162D01*
X95143943Y-82708117D01*
X95364616Y-82487829D01*
X95760000Y-82752016D01*
X95760000Y-84775198D01*
X94542602Y-85992596D01*
X94519662Y-85870683D01*
X94425334Y-85724093D01*
X94512931Y-85595890D01*
X94563940Y-85344000D01*
X94563940Y-84836000D01*
X94519662Y-84600683D01*
X94425334Y-84454093D01*
X94512931Y-84325890D01*
X94563940Y-84074000D01*
X94563940Y-83566000D01*
X94519662Y-83330683D01*
X94380590Y-83114559D01*
X94168390Y-82969569D01*
X93916500Y-82918560D01*
X92773500Y-82918560D01*
X92538183Y-82962838D01*
X92322059Y-83101910D01*
X92177069Y-83314110D01*
X92126060Y-83566000D01*
X92126060Y-84074000D01*
X92170338Y-84309317D01*
X92264666Y-84455907D01*
X92177069Y-84584110D01*
X92126060Y-84836000D01*
X92126060Y-85344000D01*
X92170338Y-85579317D01*
X92264666Y-85725907D01*
X92177069Y-85854110D01*
X92126060Y-86106000D01*
X92126060Y-86614000D01*
X92170338Y-86849317D01*
X92264666Y-86995907D01*
X92177069Y-87124110D01*
X92126060Y-87376000D01*
X92126060Y-87884000D01*
X92170338Y-88119317D01*
X92309410Y-88335441D01*
X92521610Y-88480431D01*
X92773500Y-88531440D01*
X93916500Y-88531440D01*
X94151817Y-88487162D01*
X94367941Y-88348090D01*
X94469558Y-88199369D01*
X94517401Y-88167401D01*
X97057401Y-85627401D01*
X97222148Y-85380840D01*
X97248732Y-85247192D01*
X97280000Y-85090000D01*
X97280000Y-82752016D01*
X97687433Y-82479778D01*
X98045325Y-81944155D01*
X98154984Y-81392865D01*
X98637771Y-83820000D01*
X97219816Y-90948539D01*
X93181823Y-96991823D01*
X87138539Y-101029816D01*
X86753440Y-101106417D01*
X86753440Y-99314000D01*
X86709162Y-99078683D01*
X86570090Y-98862559D01*
X86357890Y-98717569D01*
X86106000Y-98666560D01*
X84074000Y-98666560D01*
X83838683Y-98710838D01*
X83622559Y-98849910D01*
X83515767Y-99006206D01*
X83310000Y-98868717D01*
X83310000Y-98550000D01*
X88900000Y-98550000D01*
X89190839Y-98492148D01*
X89437401Y-98327401D01*
X89602148Y-98080839D01*
X89660000Y-97790000D01*
X89660000Y-96831900D01*
X90170000Y-96933345D01*
X90743489Y-96819271D01*
X91229670Y-96494415D01*
X91554526Y-96008234D01*
X91668600Y-95434745D01*
X91668600Y-95065255D01*
X91554526Y-94491766D01*
X91296097Y-94105000D01*
X92782537Y-94105000D01*
X92814673Y-94137192D01*
X93158201Y-94279838D01*
X93530167Y-94280162D01*
X93873943Y-94138117D01*
X94137192Y-93875327D01*
X94279838Y-93531799D01*
X94280162Y-93159833D01*
X94138117Y-92816057D01*
X93875327Y-92552808D01*
X93531799Y-92410162D01*
X93159833Y-92409838D01*
X92816057Y-92551883D01*
X92782882Y-92585000D01*
X90026097Y-92585000D01*
X90284526Y-92198234D01*
X90398600Y-91624745D01*
X90398600Y-91255255D01*
X90284526Y-90681766D01*
X89959670Y-90195585D01*
X89473489Y-89870729D01*
X88967090Y-89770000D01*
X91027560Y-89770000D01*
X91027560Y-90570000D01*
X91071838Y-90805317D01*
X91159881Y-90942140D01*
X91118785Y-91003646D01*
X91040000Y-91399723D01*
X91040000Y-91440277D01*
X91118785Y-91836354D01*
X91343144Y-92172133D01*
X91678923Y-92396492D01*
X92075000Y-92475277D01*
X92471077Y-92396492D01*
X92806856Y-92172133D01*
X93031215Y-91836354D01*
X93110000Y-91440277D01*
X93110000Y-91399723D01*
X93031215Y-91003646D01*
X92989698Y-90941511D01*
X93071431Y-90821890D01*
X93083964Y-90760000D01*
X94817666Y-90760000D01*
X94831838Y-90835317D01*
X94970910Y-91051441D01*
X95183110Y-91196431D01*
X95435000Y-91247440D01*
X96335000Y-91247440D01*
X96570317Y-91203162D01*
X96786441Y-91064090D01*
X96931431Y-90851890D01*
X96982440Y-90600000D01*
X96982440Y-89400000D01*
X96938162Y-89164683D01*
X96799090Y-88948559D01*
X96586890Y-88803569D01*
X96335000Y-88752560D01*
X95435000Y-88752560D01*
X95199683Y-88796838D01*
X94983559Y-88935910D01*
X94838569Y-89148110D01*
X94819961Y-89240000D01*
X92824115Y-89240000D01*
X92726890Y-89173569D01*
X92475000Y-89122560D01*
X91675000Y-89122560D01*
X91439683Y-89166838D01*
X91223559Y-89305910D01*
X91078569Y-89518110D01*
X91027560Y-89770000D01*
X88967090Y-89770000D01*
X88900000Y-89756655D01*
X88326511Y-89870729D01*
X87993225Y-90093423D01*
X86262401Y-88362599D01*
X86015839Y-88197852D01*
X85725000Y-88140000D01*
X84606844Y-88140000D01*
X84564090Y-88073559D01*
X84351890Y-87928569D01*
X84100000Y-87877560D01*
X82900000Y-87877560D01*
X82664683Y-87921838D01*
X82550022Y-87995620D01*
X82451890Y-87928569D01*
X82200000Y-87877560D01*
X82040000Y-87877560D01*
X82040000Y-87557463D01*
X82072192Y-87525327D01*
X82214838Y-87181799D01*
X82215162Y-86809833D01*
X82073117Y-86466057D01*
X81810327Y-86202808D01*
X81466799Y-86060162D01*
X81094833Y-86059838D01*
X80751057Y-86201883D01*
X80717882Y-86235000D01*
X78419802Y-86235000D01*
X74224802Y-82040000D01*
X76200000Y-82040000D01*
X76490839Y-81982148D01*
X76737401Y-81817401D01*
X78419802Y-80135000D01*
X81352537Y-80135000D01*
X81384673Y-80167192D01*
X81728201Y-80309838D01*
X82100167Y-80310162D01*
X82443943Y-80168117D01*
X82707192Y-79905327D01*
X82849838Y-79561799D01*
X82850162Y-79189833D01*
X82708117Y-78846057D01*
X82445327Y-78582808D01*
X82101799Y-78440162D01*
X81729833Y-78439838D01*
X81386057Y-78581883D01*
X81352882Y-78615000D01*
X79672440Y-78615000D01*
X79672440Y-78365000D01*
X79628162Y-78129683D01*
X79489090Y-77913559D01*
X79276890Y-77768569D01*
X79176701Y-77748280D01*
X79170591Y-77717560D01*
X79127148Y-77499160D01*
X79040089Y-77368867D01*
X79040162Y-77284833D01*
X78898117Y-76941057D01*
X78635327Y-76677808D01*
X78291799Y-76535162D01*
X77919833Y-76534838D01*
X77576057Y-76676883D01*
X77312808Y-76939673D01*
X77170162Y-77283201D01*
X77169838Y-77655167D01*
X77309883Y-77994103D01*
X77228569Y-78113110D01*
X77177560Y-78365000D01*
X77177560Y-79115000D01*
X77195398Y-79209800D01*
X75885198Y-80520000D01*
X73934397Y-80520000D01*
X73956920Y-80408780D01*
X73956920Y-79611220D01*
X73912642Y-79375903D01*
X73773570Y-79159779D01*
X73561370Y-79014789D01*
X73309480Y-78963780D01*
X72511920Y-78963780D01*
X72276603Y-79008058D01*
X72060479Y-79147130D01*
X71990191Y-79250000D01*
X71755000Y-79250000D01*
X71464161Y-79307852D01*
X71217599Y-79472599D01*
X70980320Y-79709878D01*
X70934833Y-79709838D01*
X70591057Y-79851883D01*
X70327808Y-80114673D01*
X70185162Y-80458201D01*
X70185108Y-80520000D01*
X69529802Y-80520000D01*
X67212401Y-78202599D01*
X66965839Y-78037852D01*
X66675000Y-77980000D01*
X65332463Y-77980000D01*
X65300327Y-77947808D01*
X64956799Y-77805162D01*
X64584833Y-77804838D01*
X64241057Y-77946883D01*
X63977808Y-78209673D01*
X63835162Y-78553201D01*
X63834838Y-78925167D01*
X63976883Y-79268943D01*
X64180000Y-79472415D01*
X64180000Y-80212666D01*
X64104683Y-80226838D01*
X63888559Y-80365910D01*
X63743569Y-80578110D01*
X63692560Y-80830000D01*
X63692560Y-81730000D01*
X63736838Y-81965317D01*
X63875910Y-82181441D01*
X64088110Y-82326431D01*
X64340000Y-82377440D01*
X65540000Y-82377440D01*
X65775317Y-82333162D01*
X65991441Y-82194090D01*
X66136431Y-81981890D01*
X66187440Y-81730000D01*
X66187440Y-80830000D01*
X66143162Y-80594683D01*
X66004090Y-80378559D01*
X65791890Y-80233569D01*
X65700000Y-80214961D01*
X65700000Y-79500000D01*
X66360198Y-79500000D01*
X68677599Y-81817401D01*
X68924160Y-81982148D01*
X68972414Y-81991746D01*
X69215000Y-82040000D01*
X69549890Y-82040000D01*
X69549838Y-82100167D01*
X69691883Y-82443943D01*
X69954673Y-82707192D01*
X70298201Y-82849838D01*
X70670167Y-82850162D01*
X71013943Y-82708117D01*
X71047118Y-82675000D01*
X72710198Y-82675000D01*
X77567599Y-87532401D01*
X77814161Y-87697148D01*
X77956947Y-87725550D01*
X77947808Y-87734673D01*
X77805162Y-88078201D01*
X77804838Y-88450167D01*
X77946883Y-88793943D01*
X77980000Y-88827118D01*
X77980000Y-89995352D01*
X77680330Y-90195585D01*
X77470000Y-90510366D01*
X77259670Y-90195585D01*
X76773489Y-89870729D01*
X76200000Y-89756655D01*
X75626511Y-89870729D01*
X75140330Y-90195585D01*
X74815474Y-90681766D01*
X74701400Y-91255255D01*
X74701400Y-91624745D01*
X74815474Y-92198234D01*
X75140330Y-92684415D01*
X75626511Y-93009271D01*
X76200000Y-93123345D01*
X76773489Y-93009271D01*
X77259670Y-92684415D01*
X77470000Y-92369634D01*
X77680330Y-92684415D01*
X78166511Y-93009271D01*
X78740000Y-93123345D01*
X79313489Y-93009271D01*
X79799670Y-92684415D01*
X80010000Y-92369634D01*
X80220330Y-92684415D01*
X80706511Y-93009271D01*
X81280000Y-93123345D01*
X81853489Y-93009271D01*
X82339670Y-92684415D01*
X82550000Y-92369634D01*
X82760330Y-92684415D01*
X83246511Y-93009271D01*
X83820000Y-93123345D01*
X84393489Y-93009271D01*
X84879670Y-92684415D01*
X85090000Y-92369634D01*
X85300330Y-92684415D01*
X85786511Y-93009271D01*
X86360000Y-93123345D01*
X86741114Y-93047537D01*
X86695162Y-93158201D01*
X86694838Y-93530167D01*
X86821838Y-93837532D01*
X86570330Y-94005585D01*
X86360000Y-94320366D01*
X86149670Y-94005585D01*
X85663489Y-93680729D01*
X85090000Y-93566655D01*
X84516511Y-93680729D01*
X84030330Y-94005585D01*
X83820000Y-94320366D01*
X83609670Y-94005585D01*
X83123489Y-93680729D01*
X82550000Y-93566655D01*
X81976511Y-93680729D01*
X81490330Y-94005585D01*
X81165474Y-94491766D01*
X81051400Y-95065255D01*
X81051400Y-95434745D01*
X81165474Y-96008234D01*
X81490330Y-96494415D01*
X81976511Y-96819271D01*
X82550000Y-96933345D01*
X83123489Y-96819271D01*
X83609670Y-96494415D01*
X83820000Y-96179634D01*
X84030330Y-96494415D01*
X84516511Y-96819271D01*
X85090000Y-96933345D01*
X85663489Y-96819271D01*
X86149670Y-96494415D01*
X86360000Y-96179634D01*
X86570330Y-96494415D01*
X87056511Y-96819271D01*
X87630000Y-96933345D01*
X88140000Y-96831900D01*
X88140000Y-97030000D01*
X82550000Y-97030000D01*
X82259161Y-97087852D01*
X82012599Y-97252599D01*
X81847852Y-97499161D01*
X81790000Y-97790000D01*
X81790000Y-98868717D01*
X81350222Y-99162567D01*
X80992330Y-99698190D01*
X80866655Y-100330000D01*
X80992330Y-100961810D01*
X81335233Y-101475000D01*
X80959802Y-101475000D01*
X78642401Y-99157599D01*
X78395839Y-98992852D01*
X78105000Y-98935000D01*
X72704802Y-98935000D01*
X71880000Y-98110198D01*
X71880000Y-96913440D01*
X72136000Y-96913440D01*
X72371317Y-96869162D01*
X72587441Y-96730090D01*
X72732431Y-96517890D01*
X72783440Y-96266000D01*
X72783440Y-94234000D01*
X72739162Y-93998683D01*
X72600090Y-93782559D01*
X72387890Y-93637569D01*
X72136000Y-93586560D01*
X70104000Y-93586560D01*
X69868683Y-93630838D01*
X69652559Y-93769910D01*
X69507569Y-93982110D01*
X69456560Y-94234000D01*
X69456560Y-96266000D01*
X69500838Y-96501317D01*
X69639910Y-96717441D01*
X69852110Y-96862431D01*
X70104000Y-96913440D01*
X70360000Y-96913440D01*
X70360000Y-97869290D01*
X70140839Y-97722852D01*
X69850000Y-97665000D01*
X68894802Y-97665000D01*
X65530000Y-94300198D01*
X65530000Y-93345000D01*
X65472148Y-93054161D01*
X65472148Y-93054160D01*
X65307401Y-92807599D01*
X64260000Y-91760198D01*
X64260000Y-90563440D01*
X64516000Y-90563440D01*
X64751317Y-90519162D01*
X64967441Y-90380090D01*
X65112431Y-90167890D01*
X65163440Y-89916000D01*
X65163440Y-87884000D01*
X65119162Y-87648683D01*
X64980090Y-87432559D01*
X64823794Y-87325767D01*
X65025325Y-87024155D01*
X65106910Y-86614000D01*
X69456560Y-86614000D01*
X69456560Y-88646000D01*
X69500838Y-88881317D01*
X69639910Y-89097441D01*
X69852110Y-89242431D01*
X70104000Y-89293440D01*
X70360000Y-89293440D01*
X70360000Y-89776560D01*
X70256400Y-89776560D01*
X70021083Y-89820838D01*
X69804959Y-89959910D01*
X69659969Y-90172110D01*
X69608960Y-90424000D01*
X69608960Y-92456000D01*
X69653238Y-92691317D01*
X69792310Y-92907441D01*
X70004510Y-93052431D01*
X70256400Y-93103440D01*
X71983600Y-93103440D01*
X72218917Y-93059162D01*
X72435041Y-92920090D01*
X72580031Y-92707890D01*
X72631040Y-92456000D01*
X72631040Y-90424000D01*
X72586762Y-90188683D01*
X72447690Y-89972559D01*
X72235490Y-89827569D01*
X71983600Y-89776560D01*
X71880000Y-89776560D01*
X71880000Y-89293440D01*
X72136000Y-89293440D01*
X72371317Y-89249162D01*
X72587441Y-89110090D01*
X72732431Y-88897890D01*
X72783440Y-88646000D01*
X72783440Y-86614000D01*
X72739162Y-86378683D01*
X72600090Y-86162559D01*
X72387890Y-86017569D01*
X72136000Y-85966560D01*
X70104000Y-85966560D01*
X69868683Y-86010838D01*
X69652559Y-86149910D01*
X69507569Y-86362110D01*
X69456560Y-86614000D01*
X65106910Y-86614000D01*
X65151000Y-86392345D01*
X65151000Y-86327655D01*
X65025325Y-85695845D01*
X64667433Y-85160222D01*
X64131810Y-84802330D01*
X63500000Y-84676655D01*
X62868190Y-84802330D01*
X62332567Y-85160222D01*
X61974675Y-85695845D01*
X61865016Y-86247135D01*
X61382229Y-83820000D01*
X62800184Y-76691461D01*
X65517306Y-72625000D01*
X68167560Y-72625000D01*
X68167560Y-73425000D01*
X68211838Y-73660317D01*
X68350910Y-73876441D01*
X68563110Y-74021431D01*
X68815000Y-74072440D01*
X69615000Y-74072440D01*
X69850317Y-74028162D01*
X70066441Y-73889090D01*
X70211431Y-73676890D01*
X70262440Y-73425000D01*
X70262440Y-72625000D01*
X70218162Y-72389683D01*
X70079090Y-72173559D01*
X69866890Y-72028569D01*
X69615000Y-71977560D01*
X68815000Y-71977560D01*
X68579683Y-72021838D01*
X68363559Y-72160910D01*
X68218569Y-72373110D01*
X68167560Y-72625000D01*
X65517306Y-72625000D01*
X66838177Y-70648177D01*
X67681031Y-70085000D01*
X71977560Y-70085000D01*
X71977560Y-70885000D01*
X72021838Y-71120317D01*
X72109881Y-71257140D01*
X72068785Y-71318646D01*
X71990000Y-71714723D01*
X71990000Y-71755277D01*
X72068785Y-72151354D01*
X72293144Y-72487133D01*
X72628923Y-72711492D01*
X73025000Y-72790277D01*
X73421077Y-72711492D01*
X73756856Y-72487133D01*
X73981215Y-72151354D01*
X74060000Y-71755277D01*
X74060000Y-71714723D01*
X73981215Y-71318646D01*
X73939698Y-71256511D01*
X74021431Y-71136890D01*
X74072440Y-70885000D01*
X74072440Y-70085000D01*
X74028162Y-69849683D01*
X73889090Y-69633559D01*
X73676890Y-69488569D01*
X73425000Y-69437560D01*
X72625000Y-69437560D01*
X72389683Y-69481838D01*
X72173559Y-69620910D01*
X72028569Y-69833110D01*
X71977560Y-70085000D01*
X67681031Y-70085000D01*
X72881461Y-66610184D01*
X73266560Y-66533583D01*
X73266560Y-68326000D01*
X73310838Y-68561317D01*
X73449910Y-68777441D01*
X73662110Y-68922431D01*
X73914000Y-68973440D01*
X75946000Y-68973440D01*
X76181317Y-68929162D01*
X76397441Y-68790090D01*
X76504233Y-68633794D01*
X76805845Y-68835325D01*
X77437655Y-68961000D01*
X77502345Y-68961000D01*
X78134155Y-68835325D01*
X78669778Y-68477433D01*
X79027670Y-67941810D01*
X79112567Y-67515000D01*
X81452560Y-67515000D01*
X81452560Y-68715000D01*
X81496838Y-68950317D01*
X81635910Y-69166441D01*
X81848110Y-69311431D01*
X82100000Y-69362440D01*
X83000000Y-69362440D01*
X83235317Y-69318162D01*
X83451441Y-69179090D01*
X83596431Y-68966890D01*
X83615039Y-68875000D01*
X83650000Y-68875000D01*
X83940839Y-68817148D01*
X84187401Y-68652401D01*
X84594680Y-68245122D01*
X84640167Y-68245162D01*
X84983943Y-68103117D01*
X85247192Y-67840327D01*
X85389838Y-67496799D01*
X85390162Y-67124833D01*
X85248117Y-66781057D01*
X84985327Y-66517808D01*
X84641799Y-66375162D01*
X84269833Y-66374838D01*
X83926057Y-66516883D01*
X83662808Y-66779673D01*
X83520162Y-67123201D01*
X83520138Y-67150660D01*
X83464090Y-67063559D01*
X83251890Y-66918569D01*
X83000000Y-66867560D01*
X82100000Y-66867560D01*
X81864683Y-66911838D01*
X81648559Y-67050910D01*
X81503569Y-67263110D01*
X81452560Y-67515000D01*
X79112567Y-67515000D01*
X79153345Y-67310000D01*
X79027670Y-66678190D01*
X78669778Y-66142567D01*
X78134155Y-65784675D01*
X77582865Y-65675016D01*
X80010000Y-65192229D01*
X87138539Y-66610184D01*
M02*
