G04 #@! TF.FileFunction,Legend,Top*
%FSLAX46Y46*%
G04 Gerber Fmt 4.6, Leading zero omitted, Abs format (unit mm)*
G04 Created by KiCad (PCBNEW 4.0.3+e1-6302~38~ubuntu16.04.1-stable) date Mon Aug 29 22:27:36 2016*
%MOMM*%
%LPD*%
G01*
G04 APERTURE LIST*
%ADD10C,0.100000*%
%ADD11C,0.150000*%
G04 APERTURE END LIST*
D10*
D11*
X87899240Y-73406000D02*
X88300560Y-73205340D01*
X88300560Y-73205340D02*
X88900000Y-73103740D01*
X88900000Y-73103740D02*
X89400380Y-73205340D01*
X89400380Y-73205340D02*
X90098880Y-73604120D01*
X90098880Y-73604120D02*
X90500200Y-74206100D01*
X90500200Y-74206100D02*
X90700860Y-74805540D01*
X90700860Y-74805540D02*
X90700860Y-81404460D01*
X90700860Y-81404460D02*
X90500200Y-82105500D01*
X90500200Y-82105500D02*
X90200480Y-82504280D01*
X90200480Y-82504280D02*
X89700100Y-82905600D01*
X89700100Y-82905600D02*
X89100660Y-83106260D01*
X89100660Y-83106260D02*
X88600280Y-83106260D01*
X88600280Y-83106260D02*
X88099900Y-82905600D01*
X88099900Y-82905600D02*
X87500460Y-82405220D01*
X87500460Y-82405220D02*
X87200740Y-81904840D01*
X87200740Y-81904840D02*
X87099140Y-81404460D01*
X87099140Y-81305400D02*
X87099140Y-74703940D01*
X87099140Y-74703940D02*
X87200740Y-74305160D01*
X87200740Y-74305160D02*
X87500460Y-73804780D01*
X87500460Y-73804780D02*
X88000840Y-73304400D01*
X86570820Y-81295240D02*
X86619080Y-81754980D01*
X86619080Y-81754980D02*
X86730840Y-82153760D01*
X86730840Y-82153760D02*
X86949280Y-82585560D01*
X86949280Y-82585560D02*
X87180420Y-82875120D01*
X87180420Y-82875120D02*
X87530940Y-83205320D01*
X87530940Y-83205320D02*
X88069420Y-83494880D01*
X88069420Y-83494880D02*
X88668860Y-83624420D01*
X88668860Y-83624420D02*
X89179400Y-83624420D01*
X89179400Y-83624420D02*
X89880440Y-83454240D01*
X89880440Y-83454240D02*
X90469720Y-83055460D01*
X90469720Y-83055460D02*
X90840560Y-82595720D01*
X90840560Y-82595720D02*
X91048840Y-82174080D01*
X91048840Y-82174080D02*
X91208860Y-81724500D01*
X91208860Y-81724500D02*
X91239340Y-81285080D01*
X91020900Y-73944480D02*
X90799920Y-73566020D01*
X90799920Y-73566020D02*
X90520520Y-73245980D01*
X90520520Y-73245980D02*
X90190320Y-72994520D01*
X90190320Y-72994520D02*
X89639140Y-72694800D01*
X89639140Y-72694800D02*
X89169240Y-72585580D01*
X89169240Y-72585580D02*
X88709500Y-72565260D01*
X88709500Y-72565260D02*
X88249760Y-72654160D01*
X88249760Y-72654160D02*
X87800180Y-72844660D01*
X87800180Y-72844660D02*
X87330280Y-73205340D01*
X87330280Y-73205340D02*
X87010240Y-73555860D01*
X87010240Y-73555860D02*
X86779100Y-73944480D01*
X86779100Y-73944480D02*
X86639400Y-74373740D01*
X86639400Y-74373740D02*
X86570820Y-74815700D01*
X91229180Y-81305400D02*
X91229180Y-74853800D01*
X91229180Y-74853800D02*
X91191080Y-74434700D01*
X91191080Y-74434700D02*
X91020900Y-73944480D01*
X86570820Y-81305400D02*
X86570820Y-74853800D01*
X75600000Y-87980000D02*
X75600000Y-87280000D01*
X76800000Y-87280000D02*
X76800000Y-87980000D01*
X88935000Y-87980000D02*
X88935000Y-87280000D01*
X90135000Y-87280000D02*
X90135000Y-87980000D01*
X82635000Y-80095000D02*
X82635000Y-79670000D01*
X77385000Y-80095000D02*
X77385000Y-79585000D01*
X77385000Y-74845000D02*
X77385000Y-75355000D01*
X82635000Y-74845000D02*
X82635000Y-75355000D01*
X82635000Y-80095000D02*
X82125000Y-80095000D01*
X82635000Y-74845000D02*
X82125000Y-74845000D01*
X77385000Y-74845000D02*
X77895000Y-74845000D01*
X77385000Y-80095000D02*
X77895000Y-80095000D01*
X82635000Y-79670000D02*
X83860000Y-79670000D01*
X72390000Y-92710000D02*
X90170000Y-92710000D01*
X90170000Y-92710000D02*
X90170000Y-90170000D01*
X90170000Y-90170000D02*
X72390000Y-90170000D01*
X69570000Y-92990000D02*
X71120000Y-92990000D01*
X72390000Y-92710000D02*
X72390000Y-90170000D01*
X71120000Y-89890000D02*
X69570000Y-89890000D01*
X69570000Y-89890000D02*
X69570000Y-92990000D01*
X78740000Y-96520000D02*
X91440000Y-96520000D01*
X91440000Y-96520000D02*
X91440000Y-93980000D01*
X91440000Y-93980000D02*
X78740000Y-93980000D01*
X75920000Y-96800000D02*
X77470000Y-96800000D01*
X78740000Y-96520000D02*
X78740000Y-93980000D01*
X77470000Y-93700000D02*
X75920000Y-93700000D01*
X75920000Y-93700000D02*
X75920000Y-96800000D01*
X73145000Y-68985000D02*
X75075000Y-68985000D01*
X75075000Y-68985000D02*
X75075000Y-73235000D01*
X75075000Y-73235000D02*
X71875000Y-73235000D01*
X71875000Y-73235000D02*
X71875000Y-70255000D01*
X71375000Y-70485000D02*
X70875000Y-70985000D01*
X70875000Y-70985000D02*
X70875000Y-69985000D01*
X70875000Y-69985000D02*
X71375000Y-70485000D01*
X69335000Y-71525000D02*
X71265000Y-71525000D01*
X71265000Y-71525000D02*
X71265000Y-75775000D01*
X71265000Y-75775000D02*
X68065000Y-75775000D01*
X68065000Y-75775000D02*
X68065000Y-72795000D01*
X67565000Y-73025000D02*
X67065000Y-73525000D01*
X67065000Y-73525000D02*
X67065000Y-72525000D01*
X67065000Y-72525000D02*
X67565000Y-73025000D01*
X65050000Y-90450000D02*
X65050000Y-88900000D01*
X64770000Y-85090000D02*
X64770000Y-87630000D01*
X64770000Y-87630000D02*
X62230000Y-87630000D01*
X61950000Y-88900000D02*
X61950000Y-90450000D01*
X61950000Y-90450000D02*
X65050000Y-90450000D01*
X62230000Y-87630000D02*
X62230000Y-85090000D01*
X62230000Y-85090000D02*
X64770000Y-85090000D01*
X73380000Y-68860000D02*
X74930000Y-68860000D01*
X78740000Y-68580000D02*
X76200000Y-68580000D01*
X76200000Y-68580000D02*
X76200000Y-66040000D01*
X74930000Y-65760000D02*
X73380000Y-65760000D01*
X73380000Y-65760000D02*
X73380000Y-68860000D01*
X76200000Y-66040000D02*
X78740000Y-66040000D01*
X78740000Y-66040000D02*
X78740000Y-68580000D01*
X94970000Y-77190000D02*
X94970000Y-78740000D01*
X95250000Y-82550000D02*
X95250000Y-80010000D01*
X95250000Y-80010000D02*
X97790000Y-80010000D01*
X98070000Y-78740000D02*
X98070000Y-77190000D01*
X98070000Y-77190000D02*
X94970000Y-77190000D01*
X97790000Y-80010000D02*
X97790000Y-82550000D01*
X97790000Y-82550000D02*
X95250000Y-82550000D01*
X86640000Y-98780000D02*
X85090000Y-98780000D01*
X81280000Y-99060000D02*
X83820000Y-99060000D01*
X83820000Y-99060000D02*
X83820000Y-101600000D01*
X85090000Y-101880000D02*
X86640000Y-101880000D01*
X86640000Y-101880000D02*
X86640000Y-98780000D01*
X83820000Y-101600000D02*
X81280000Y-101600000D01*
X81280000Y-101600000D02*
X81280000Y-99060000D01*
X69570000Y-89180000D02*
X71120000Y-89180000D01*
X74930000Y-88900000D02*
X72390000Y-88900000D01*
X72390000Y-88900000D02*
X72390000Y-86360000D01*
X71120000Y-86080000D02*
X69570000Y-86080000D01*
X69570000Y-86080000D02*
X69570000Y-89180000D01*
X72390000Y-86360000D02*
X74930000Y-86360000D01*
X74930000Y-86360000D02*
X74930000Y-88900000D01*
X69570000Y-96800000D02*
X71120000Y-96800000D01*
X74930000Y-96520000D02*
X72390000Y-96520000D01*
X72390000Y-96520000D02*
X72390000Y-93980000D01*
X71120000Y-93700000D02*
X69570000Y-93700000D01*
X69570000Y-93700000D02*
X69570000Y-96800000D01*
X72390000Y-93980000D02*
X74930000Y-93980000D01*
X74930000Y-93980000D02*
X74930000Y-96520000D01*
X69215000Y-82296000D02*
X64135000Y-82296000D01*
X64135000Y-82296000D02*
X64135000Y-77724000D01*
X64135000Y-77724000D02*
X69215000Y-77724000D01*
X69215000Y-77724000D02*
X69215000Y-82296000D01*
X69215000Y-80772000D02*
X68707000Y-80772000D01*
X68707000Y-80772000D02*
X68707000Y-79502000D01*
X68707000Y-79502000D02*
X69215000Y-79502000D01*
X80264000Y-71120000D02*
X80264000Y-66040000D01*
X80264000Y-66040000D02*
X84836000Y-66040000D01*
X84836000Y-66040000D02*
X84836000Y-71120000D01*
X84836000Y-71120000D02*
X80264000Y-71120000D01*
X81788000Y-71120000D02*
X81788000Y-70612000D01*
X81788000Y-70612000D02*
X83058000Y-70612000D01*
X83058000Y-70612000D02*
X83058000Y-71120000D01*
X71160000Y-77605000D02*
X71160000Y-78605000D01*
X69810000Y-78605000D02*
X69810000Y-77605000D01*
X70620000Y-82510000D02*
X71620000Y-82510000D01*
X71620000Y-83860000D02*
X70620000Y-83860000D01*
X92195000Y-88670000D02*
X94125000Y-88670000D01*
X94125000Y-88670000D02*
X94125000Y-92920000D01*
X94125000Y-92920000D02*
X90925000Y-92920000D01*
X90925000Y-92920000D02*
X90925000Y-89940000D01*
X90425000Y-90170000D02*
X89925000Y-90670000D01*
X89925000Y-90670000D02*
X89925000Y-89670000D01*
X89925000Y-89670000D02*
X90425000Y-90170000D01*
X66759780Y-91409890D02*
X66759780Y-88909890D01*
X66759780Y-88909890D02*
X67859780Y-88909890D01*
X67859780Y-88909890D02*
X67859780Y-91409890D01*
X67859780Y-91409890D02*
X66759780Y-91409890D01*
X68109780Y-91659890D02*
X68109780Y-88659890D01*
X66509780Y-91659890D02*
X66509780Y-88659890D01*
X66509780Y-88659890D02*
X68109780Y-88659890D01*
X66509780Y-91659890D02*
X68109780Y-91659890D01*
X69059780Y-93159890D02*
X69059780Y-87159890D01*
X65559780Y-93159890D02*
X65559780Y-87159890D01*
X65559780Y-93159890D02*
X69059780Y-93159890D01*
X65559780Y-87159890D02*
X69059780Y-87159890D01*
X85542381Y-80271666D02*
X85542381Y-80843095D01*
X85542381Y-80557381D02*
X84542381Y-80557381D01*
X84685238Y-80652619D01*
X84780476Y-80747857D01*
X84828095Y-80843095D01*
X84542381Y-79414523D02*
X84542381Y-79605000D01*
X84590000Y-79700238D01*
X84637619Y-79747857D01*
X84780476Y-79843095D01*
X84970952Y-79890714D01*
X85351905Y-79890714D01*
X85447143Y-79843095D01*
X85494762Y-79795476D01*
X85542381Y-79700238D01*
X85542381Y-79509761D01*
X85494762Y-79414523D01*
X85447143Y-79366904D01*
X85351905Y-79319285D01*
X85113810Y-79319285D01*
X85018571Y-79366904D01*
X84970952Y-79414523D01*
X84923333Y-79509761D01*
X84923333Y-79700238D01*
X84970952Y-79795476D01*
X85018571Y-79843095D01*
X85113810Y-79890714D01*
X85542381Y-78890714D02*
X84542381Y-78890714D01*
X85256667Y-78557380D01*
X84542381Y-78224047D01*
X85542381Y-78224047D01*
X85542381Y-77747857D02*
X84542381Y-77747857D01*
X85018571Y-77747857D02*
X85018571Y-77176428D01*
X85542381Y-77176428D02*
X84542381Y-77176428D01*
X84875714Y-76795476D02*
X84875714Y-76271666D01*
X85542381Y-76795476D01*
X85542381Y-76271666D01*
X85542381Y-75366904D02*
X85542381Y-75938333D01*
X85542381Y-75652619D02*
X84542381Y-75652619D01*
X84685238Y-75747857D01*
X84780476Y-75843095D01*
X84828095Y-75938333D01*
X74657143Y-87796666D02*
X74704762Y-87844285D01*
X74752381Y-87987142D01*
X74752381Y-88082380D01*
X74704762Y-88225238D01*
X74609524Y-88320476D01*
X74514286Y-88368095D01*
X74323810Y-88415714D01*
X74180952Y-88415714D01*
X73990476Y-88368095D01*
X73895238Y-88320476D01*
X73800000Y-88225238D01*
X73752381Y-88082380D01*
X73752381Y-87987142D01*
X73800000Y-87844285D01*
X73847619Y-87796666D01*
X74752381Y-86844285D02*
X74752381Y-87415714D01*
X74752381Y-87130000D02*
X73752381Y-87130000D01*
X73895238Y-87225238D01*
X73990476Y-87320476D01*
X74038095Y-87415714D01*
X87992143Y-87796666D02*
X88039762Y-87844285D01*
X88087381Y-87987142D01*
X88087381Y-88082380D01*
X88039762Y-88225238D01*
X87944524Y-88320476D01*
X87849286Y-88368095D01*
X87658810Y-88415714D01*
X87515952Y-88415714D01*
X87325476Y-88368095D01*
X87230238Y-88320476D01*
X87135000Y-88225238D01*
X87087381Y-88082380D01*
X87087381Y-87987142D01*
X87135000Y-87844285D01*
X87182619Y-87796666D01*
X87087381Y-87463333D02*
X87087381Y-86844285D01*
X87468333Y-87177619D01*
X87468333Y-87034761D01*
X87515952Y-86939523D01*
X87563571Y-86891904D01*
X87658810Y-86844285D01*
X87896905Y-86844285D01*
X87992143Y-86891904D01*
X88039762Y-86939523D01*
X88087381Y-87034761D01*
X88087381Y-87320476D01*
X88039762Y-87415714D01*
X87992143Y-87463333D01*
X79033810Y-82772381D02*
X79033810Y-81772381D01*
X80081429Y-82677143D02*
X80033810Y-82724762D01*
X79890953Y-82772381D01*
X79795715Y-82772381D01*
X79652857Y-82724762D01*
X79557619Y-82629524D01*
X79510000Y-82534286D01*
X79462381Y-82343810D01*
X79462381Y-82200952D01*
X79510000Y-82010476D01*
X79557619Y-81915238D01*
X79652857Y-81820000D01*
X79795715Y-81772381D01*
X79890953Y-81772381D01*
X80033810Y-81820000D01*
X80081429Y-81867619D01*
X81033810Y-82772381D02*
X80462381Y-82772381D01*
X80748095Y-82772381D02*
X80748095Y-81772381D01*
X80652857Y-81915238D01*
X80557619Y-82010476D01*
X80462381Y-82058095D01*
X70286667Y-85792381D02*
X70286667Y-86506667D01*
X70239047Y-86649524D01*
X70143809Y-86744762D01*
X70000952Y-86792381D01*
X69905714Y-86792381D01*
X70762857Y-86792381D02*
X70762857Y-85792381D01*
X71143810Y-85792381D01*
X71239048Y-85840000D01*
X71286667Y-85887619D01*
X71334286Y-85982857D01*
X71334286Y-86125714D01*
X71286667Y-86220952D01*
X71239048Y-86268571D01*
X71143810Y-86316190D01*
X70762857Y-86316190D01*
X72286667Y-86792381D02*
X71715238Y-86792381D01*
X72000952Y-86792381D02*
X72000952Y-85792381D01*
X71905714Y-85935238D01*
X71810476Y-86030476D01*
X71715238Y-86078095D01*
X76636667Y-89602381D02*
X76636667Y-90316667D01*
X76589047Y-90459524D01*
X76493809Y-90554762D01*
X76350952Y-90602381D01*
X76255714Y-90602381D01*
X77112857Y-90602381D02*
X77112857Y-89602381D01*
X77493810Y-89602381D01*
X77589048Y-89650000D01*
X77636667Y-89697619D01*
X77684286Y-89792857D01*
X77684286Y-89935714D01*
X77636667Y-90030952D01*
X77589048Y-90078571D01*
X77493810Y-90126190D01*
X77112857Y-90126190D01*
X78065238Y-89697619D02*
X78112857Y-89650000D01*
X78208095Y-89602381D01*
X78446191Y-89602381D01*
X78541429Y-89650000D01*
X78589048Y-89697619D01*
X78636667Y-89792857D01*
X78636667Y-89888095D01*
X78589048Y-90030952D01*
X78017619Y-90602381D01*
X78636667Y-90602381D01*
X70127381Y-71943333D02*
X70841667Y-71943333D01*
X70984524Y-71990953D01*
X71079762Y-72086191D01*
X71127381Y-72229048D01*
X71127381Y-72324286D01*
X71127381Y-71467143D02*
X70127381Y-71467143D01*
X70127381Y-71086190D01*
X70175000Y-70990952D01*
X70222619Y-70943333D01*
X70317857Y-70895714D01*
X70460714Y-70895714D01*
X70555952Y-70943333D01*
X70603571Y-70990952D01*
X70651190Y-71086190D01*
X70651190Y-71467143D01*
X70127381Y-70562381D02*
X70127381Y-69943333D01*
X70508333Y-70276667D01*
X70508333Y-70133809D01*
X70555952Y-70038571D01*
X70603571Y-69990952D01*
X70698810Y-69943333D01*
X70936905Y-69943333D01*
X71032143Y-69990952D01*
X71079762Y-70038571D01*
X71127381Y-70133809D01*
X71127381Y-70419524D01*
X71079762Y-70514762D01*
X71032143Y-70562381D01*
X66317381Y-74483333D02*
X67031667Y-74483333D01*
X67174524Y-74530953D01*
X67269762Y-74626191D01*
X67317381Y-74769048D01*
X67317381Y-74864286D01*
X67317381Y-74007143D02*
X66317381Y-74007143D01*
X66317381Y-73626190D01*
X66365000Y-73530952D01*
X66412619Y-73483333D01*
X66507857Y-73435714D01*
X66650714Y-73435714D01*
X66745952Y-73483333D01*
X66793571Y-73530952D01*
X66841190Y-73626190D01*
X66841190Y-74007143D01*
X66650714Y-72578571D02*
X67317381Y-72578571D01*
X66269762Y-72816667D02*
X66984048Y-73054762D01*
X66984048Y-72435714D01*
X58852381Y-89804762D02*
X58185714Y-89804762D01*
X58280952Y-89804762D02*
X58233333Y-89757143D01*
X58185714Y-89661905D01*
X58185714Y-89519047D01*
X58233333Y-89423809D01*
X58328571Y-89376190D01*
X58852381Y-89376190D01*
X58328571Y-89376190D02*
X58233333Y-89328571D01*
X58185714Y-89233333D01*
X58185714Y-89090476D01*
X58233333Y-88995238D01*
X58328571Y-88947619D01*
X58852381Y-88947619D01*
X58852381Y-87947619D02*
X58852381Y-88519048D01*
X58852381Y-88233334D02*
X57852381Y-88233334D01*
X57995238Y-88328572D01*
X58090476Y-88423810D01*
X58138095Y-88519048D01*
X74025238Y-62662381D02*
X74025238Y-61995714D01*
X74025238Y-62090952D02*
X74072857Y-62043333D01*
X74168095Y-61995714D01*
X74310953Y-61995714D01*
X74406191Y-62043333D01*
X74453810Y-62138571D01*
X74453810Y-62662381D01*
X74453810Y-62138571D02*
X74501429Y-62043333D01*
X74596667Y-61995714D01*
X74739524Y-61995714D01*
X74834762Y-62043333D01*
X74882381Y-62138571D01*
X74882381Y-62662381D01*
X75310952Y-61757619D02*
X75358571Y-61710000D01*
X75453809Y-61662381D01*
X75691905Y-61662381D01*
X75787143Y-61710000D01*
X75834762Y-61757619D01*
X75882381Y-61852857D01*
X75882381Y-61948095D01*
X75834762Y-62090952D01*
X75263333Y-62662381D01*
X75882381Y-62662381D01*
X102072381Y-79644762D02*
X101405714Y-79644762D01*
X101500952Y-79644762D02*
X101453333Y-79597143D01*
X101405714Y-79501905D01*
X101405714Y-79359047D01*
X101453333Y-79263809D01*
X101548571Y-79216190D01*
X102072381Y-79216190D01*
X101548571Y-79216190D02*
X101453333Y-79168571D01*
X101405714Y-79073333D01*
X101405714Y-78930476D01*
X101453333Y-78835238D01*
X101548571Y-78787619D01*
X102072381Y-78787619D01*
X101072381Y-78406667D02*
X101072381Y-77787619D01*
X101453333Y-78120953D01*
X101453333Y-77978095D01*
X101500952Y-77882857D01*
X101548571Y-77835238D01*
X101643810Y-77787619D01*
X101881905Y-77787619D01*
X101977143Y-77835238D01*
X102024762Y-77882857D01*
X102072381Y-77978095D01*
X102072381Y-78263810D01*
X102024762Y-78359048D01*
X101977143Y-78406667D01*
X84185238Y-105882381D02*
X84185238Y-105215714D01*
X84185238Y-105310952D02*
X84232857Y-105263333D01*
X84328095Y-105215714D01*
X84470953Y-105215714D01*
X84566191Y-105263333D01*
X84613810Y-105358571D01*
X84613810Y-105882381D01*
X84613810Y-105358571D02*
X84661429Y-105263333D01*
X84756667Y-105215714D01*
X84899524Y-105215714D01*
X84994762Y-105263333D01*
X85042381Y-105358571D01*
X85042381Y-105882381D01*
X85947143Y-105215714D02*
X85947143Y-105882381D01*
X85709047Y-104834762D02*
X85470952Y-105549048D01*
X86090000Y-105549048D01*
X70381905Y-82982381D02*
X70381905Y-81982381D01*
X70762858Y-81982381D01*
X70858096Y-82030000D01*
X70905715Y-82077619D01*
X70953334Y-82172857D01*
X70953334Y-82315714D01*
X70905715Y-82410952D01*
X70858096Y-82458571D01*
X70762858Y-82506190D01*
X70381905Y-82506190D01*
X71905715Y-82982381D02*
X71334286Y-82982381D01*
X71620000Y-82982381D02*
X71620000Y-81982381D01*
X71524762Y-82125238D01*
X71429524Y-82220476D01*
X71334286Y-82268095D01*
X70381905Y-90602381D02*
X70381905Y-89602381D01*
X70762858Y-89602381D01*
X70858096Y-89650000D01*
X70905715Y-89697619D01*
X70953334Y-89792857D01*
X70953334Y-89935714D01*
X70905715Y-90030952D01*
X70858096Y-90078571D01*
X70762858Y-90126190D01*
X70381905Y-90126190D01*
X71334286Y-89697619D02*
X71381905Y-89650000D01*
X71477143Y-89602381D01*
X71715239Y-89602381D01*
X71810477Y-89650000D01*
X71858096Y-89697619D01*
X71905715Y-89792857D01*
X71905715Y-89888095D01*
X71858096Y-90030952D01*
X71286667Y-90602381D01*
X71905715Y-90602381D01*
X66579762Y-81827619D02*
X66484524Y-81780000D01*
X66389286Y-81684762D01*
X66246429Y-81541905D01*
X66151190Y-81494286D01*
X66055952Y-81494286D01*
X66103571Y-81732381D02*
X66008333Y-81684762D01*
X65913095Y-81589524D01*
X65865476Y-81399048D01*
X65865476Y-81065714D01*
X65913095Y-80875238D01*
X66008333Y-80780000D01*
X66103571Y-80732381D01*
X66294048Y-80732381D01*
X66389286Y-80780000D01*
X66484524Y-80875238D01*
X66532143Y-81065714D01*
X66532143Y-81399048D01*
X66484524Y-81589524D01*
X66389286Y-81684762D01*
X66294048Y-81732381D01*
X66103571Y-81732381D01*
X67484524Y-81732381D02*
X66913095Y-81732381D01*
X67198809Y-81732381D02*
X67198809Y-80732381D01*
X67103571Y-80875238D01*
X67008333Y-80970476D01*
X66913095Y-81018095D01*
X81827619Y-68675238D02*
X81780000Y-68770476D01*
X81684762Y-68865714D01*
X81541905Y-69008571D01*
X81494286Y-69103810D01*
X81494286Y-69199048D01*
X81732381Y-69151429D02*
X81684762Y-69246667D01*
X81589524Y-69341905D01*
X81399048Y-69389524D01*
X81065714Y-69389524D01*
X80875238Y-69341905D01*
X80780000Y-69246667D01*
X80732381Y-69151429D01*
X80732381Y-68960952D01*
X80780000Y-68865714D01*
X80875238Y-68770476D01*
X81065714Y-68722857D01*
X81399048Y-68722857D01*
X81589524Y-68770476D01*
X81684762Y-68865714D01*
X81732381Y-68960952D01*
X81732381Y-69151429D01*
X80827619Y-68341905D02*
X80780000Y-68294286D01*
X80732381Y-68199048D01*
X80732381Y-67960952D01*
X80780000Y-67865714D01*
X80827619Y-67818095D01*
X80922857Y-67770476D01*
X81018095Y-67770476D01*
X81160952Y-67818095D01*
X81732381Y-68389524D01*
X81732381Y-67770476D01*
X69037381Y-78271666D02*
X68561190Y-78605000D01*
X69037381Y-78843095D02*
X68037381Y-78843095D01*
X68037381Y-78462142D01*
X68085000Y-78366904D01*
X68132619Y-78319285D01*
X68227857Y-78271666D01*
X68370714Y-78271666D01*
X68465952Y-78319285D01*
X68513571Y-78366904D01*
X68561190Y-78462142D01*
X68561190Y-78843095D01*
X68132619Y-77890714D02*
X68085000Y-77843095D01*
X68037381Y-77747857D01*
X68037381Y-77509761D01*
X68085000Y-77414523D01*
X68132619Y-77366904D01*
X68227857Y-77319285D01*
X68323095Y-77319285D01*
X68465952Y-77366904D01*
X69037381Y-77938333D01*
X69037381Y-77319285D01*
X70953334Y-85537381D02*
X70620000Y-85061190D01*
X70381905Y-85537381D02*
X70381905Y-84537381D01*
X70762858Y-84537381D01*
X70858096Y-84585000D01*
X70905715Y-84632619D01*
X70953334Y-84727857D01*
X70953334Y-84870714D01*
X70905715Y-84965952D01*
X70858096Y-85013571D01*
X70762858Y-85061190D01*
X70381905Y-85061190D01*
X71286667Y-84537381D02*
X71905715Y-84537381D01*
X71572381Y-84918333D01*
X71715239Y-84918333D01*
X71810477Y-84965952D01*
X71858096Y-85013571D01*
X71905715Y-85108810D01*
X71905715Y-85346905D01*
X71858096Y-85442143D01*
X71810477Y-85489762D01*
X71715239Y-85537381D01*
X71429524Y-85537381D01*
X71334286Y-85489762D01*
X71286667Y-85442143D01*
X90129762Y-92128333D02*
X90177381Y-91985476D01*
X90177381Y-91747380D01*
X90129762Y-91652142D01*
X90082143Y-91604523D01*
X89986905Y-91556904D01*
X89891667Y-91556904D01*
X89796429Y-91604523D01*
X89748810Y-91652142D01*
X89701190Y-91747380D01*
X89653571Y-91937857D01*
X89605952Y-92033095D01*
X89558333Y-92080714D01*
X89463095Y-92128333D01*
X89367857Y-92128333D01*
X89272619Y-92080714D01*
X89225000Y-92033095D01*
X89177381Y-91937857D01*
X89177381Y-91699761D01*
X89225000Y-91556904D01*
X89177381Y-91223571D02*
X90177381Y-90985476D01*
X89463095Y-90794999D01*
X90177381Y-90604523D01*
X89177381Y-90366428D01*
X90177381Y-89461666D02*
X90177381Y-90033095D01*
X90177381Y-89747381D02*
X89177381Y-89747381D01*
X89320238Y-89842619D01*
X89415476Y-89937857D01*
X89463095Y-90033095D01*
X65114542Y-91493223D02*
X65162161Y-91350366D01*
X65162161Y-91112270D01*
X65114542Y-91017032D01*
X65066923Y-90969413D01*
X64971685Y-90921794D01*
X64876447Y-90921794D01*
X64781209Y-90969413D01*
X64733590Y-91017032D01*
X64685970Y-91112270D01*
X64638351Y-91302747D01*
X64590732Y-91397985D01*
X64543113Y-91445604D01*
X64447875Y-91493223D01*
X64352637Y-91493223D01*
X64257399Y-91445604D01*
X64209780Y-91397985D01*
X64162161Y-91302747D01*
X64162161Y-91064651D01*
X64209780Y-90921794D01*
X64162161Y-90588461D02*
X65162161Y-90350366D01*
X64447875Y-90159889D01*
X65162161Y-89969413D01*
X64162161Y-89731318D01*
X64257399Y-89397985D02*
X64209780Y-89350366D01*
X64162161Y-89255128D01*
X64162161Y-89017032D01*
X64209780Y-88921794D01*
X64257399Y-88874175D01*
X64352637Y-88826556D01*
X64447875Y-88826556D01*
X64590732Y-88874175D01*
X65162161Y-89445604D01*
X65162161Y-88826556D01*
M02*
