G04 #@! TF.FileFunction,Soldermask,Top*
%FSLAX46Y46*%
G04 Gerber Fmt 4.6, Leading zero omitted, Abs format (unit mm)*
G04 Created by KiCad (PCBNEW 4.0.3+e1-6302~38~ubuntu16.04.1-stable) date Mon Aug 29 22:27:36 2016*
%MOMM*%
%LPD*%
G01*
G04 APERTURE LIST*
%ADD10C,0.100000*%
%ADD11C,1.501140*%
%ADD12R,0.750000X1.200000*%
%ADD13R,1.200000X0.280000*%
%ADD14R,0.280000X1.200000*%
%ADD15R,1.727200X2.032000*%
%ADD16O,1.727200X2.032000*%
%ADD17R,0.800000X0.800000*%
%ADD18O,0.800000X0.800000*%
%ADD19R,2.032000X2.032000*%
%ADD20O,2.032000X2.032000*%
%ADD21R,0.508000X1.143000*%
%ADD22R,1.143000X0.508000*%
%ADD23R,0.900000X1.200000*%
%ADD24R,1.200000X0.900000*%
%ADD25R,1.600000X2.180000*%
G04 APERTURE END LIST*
D10*
D11*
X88900000Y-80545940D03*
X88900000Y-75664060D03*
D12*
X76200000Y-88580000D03*
X76200000Y-86680000D03*
X89535000Y-88580000D03*
X89535000Y-86680000D03*
D13*
X83260000Y-79220000D03*
X83260000Y-78720000D03*
X83260000Y-78220000D03*
X83260000Y-77720000D03*
X83260000Y-77220000D03*
X83260000Y-76720000D03*
X83260000Y-76220000D03*
X83260000Y-75720000D03*
D14*
X81760000Y-74220000D03*
X81260000Y-74220000D03*
X80760000Y-74220000D03*
X80260000Y-74220000D03*
X79760000Y-74220000D03*
X79260000Y-74220000D03*
X78760000Y-74220000D03*
X78260000Y-74220000D03*
D13*
X76760000Y-75720000D03*
X76760000Y-76220000D03*
X76760000Y-76720000D03*
X76760000Y-77220000D03*
X76760000Y-77720000D03*
X76760000Y-78220000D03*
X76760000Y-78720000D03*
X76760000Y-79220000D03*
D14*
X78260000Y-80720000D03*
X78760000Y-80720000D03*
X79260000Y-80720000D03*
X79760000Y-80720000D03*
X80260000Y-80720000D03*
X80760000Y-80720000D03*
X81260000Y-80720000D03*
X81760000Y-80720000D03*
D15*
X71120000Y-91440000D03*
D16*
X73660000Y-91440000D03*
X76200000Y-91440000D03*
X78740000Y-91440000D03*
X81280000Y-91440000D03*
X83820000Y-91440000D03*
X86360000Y-91440000D03*
X88900000Y-91440000D03*
D15*
X77470000Y-95250000D03*
D16*
X80010000Y-95250000D03*
X82550000Y-95250000D03*
X85090000Y-95250000D03*
X87630000Y-95250000D03*
X90170000Y-95250000D03*
D17*
X73025000Y-70485000D03*
D18*
X73025000Y-71735000D03*
D17*
X69215000Y-73025000D03*
D18*
X69215000Y-74275000D03*
D19*
X63500000Y-88900000D03*
D20*
X63500000Y-86360000D03*
D19*
X74930000Y-67310000D03*
D20*
X77470000Y-67310000D03*
D19*
X96520000Y-78740000D03*
D20*
X96520000Y-81280000D03*
D19*
X85090000Y-100330000D03*
D20*
X82550000Y-100330000D03*
D19*
X71120000Y-87630000D03*
D20*
X73660000Y-87630000D03*
D19*
X71120000Y-95250000D03*
D20*
X73660000Y-95250000D03*
D21*
X68580000Y-83185000D03*
X67310000Y-83185000D03*
X66040000Y-83185000D03*
X64770000Y-83185000D03*
X64770000Y-76835000D03*
X66040000Y-76835000D03*
X67310000Y-76835000D03*
X68580000Y-76835000D03*
D22*
X79375000Y-70485000D03*
X79375000Y-69215000D03*
X79375000Y-67945000D03*
X79375000Y-66675000D03*
X85725000Y-66675000D03*
X85725000Y-67945000D03*
X85725000Y-69215000D03*
X85725000Y-70485000D03*
D23*
X70485000Y-79205000D03*
X70485000Y-77005000D03*
D24*
X72220000Y-83185000D03*
X70020000Y-83185000D03*
D17*
X92075000Y-90170000D03*
D18*
X92075000Y-91420000D03*
D25*
X67307680Y-94772430D03*
X67312320Y-85567570D03*
M02*
