G04 #@! TF.FileFunction,Legend,Bot*
%FSLAX46Y46*%
G04 Gerber Fmt 4.6, Leading zero omitted, Abs format (unit mm)*
G04 Created by KiCad (PCBNEW 4.0.3+e1-6302~38~ubuntu16.04.1-stable) date Mon Aug 29 22:27:36 2016*
%MOMM*%
%LPD*%
G01*
G04 APERTURE LIST*
%ADD10C,0.100000*%
%ADD11C,0.150000*%
G04 APERTURE END LIST*
D10*
D11*
X79025000Y-79340000D02*
X79725000Y-79340000D01*
X79725000Y-78140000D02*
X79025000Y-78140000D01*
X88300000Y-72040000D02*
X88300000Y-72740000D01*
X89500000Y-72740000D02*
X89500000Y-72040000D01*
X82900000Y-88300000D02*
X82200000Y-88300000D01*
X82200000Y-89500000D02*
X82900000Y-89500000D01*
X74760000Y-80560000D02*
X72860000Y-80560000D01*
X74760000Y-79460000D02*
X72860000Y-79460000D01*
X73860000Y-80010000D02*
X73410000Y-80010000D01*
X73910000Y-79760000D02*
X73910000Y-80260000D01*
X73910000Y-80010000D02*
X73660000Y-79760000D01*
X73660000Y-79760000D02*
X73660000Y-80260000D01*
X73660000Y-80260000D02*
X73910000Y-80010000D01*
X92456000Y-88265000D02*
X92456000Y-83185000D01*
X92456000Y-83185000D02*
X87884000Y-83185000D01*
X87884000Y-83185000D02*
X87884000Y-88265000D01*
X87884000Y-88265000D02*
X92456000Y-88265000D01*
X90932000Y-88265000D02*
X90932000Y-87757000D01*
X90932000Y-87757000D02*
X89662000Y-87757000D01*
X89662000Y-87757000D02*
X89662000Y-88265000D01*
X90170000Y-78486000D02*
X95250000Y-78486000D01*
X95250000Y-78486000D02*
X95250000Y-73914000D01*
X95250000Y-73914000D02*
X90170000Y-73914000D01*
X90170000Y-73914000D02*
X90170000Y-78486000D01*
X90170000Y-76962000D02*
X90678000Y-76962000D01*
X90678000Y-76962000D02*
X90678000Y-75692000D01*
X90678000Y-75692000D02*
X90170000Y-75692000D01*
X95210000Y-88400000D02*
X95210000Y-89400000D01*
X96560000Y-89400000D02*
X96560000Y-88400000D01*
X65540000Y-81955000D02*
X66540000Y-81955000D01*
X66540000Y-80605000D02*
X65540000Y-80605000D01*
X81875000Y-68715000D02*
X81875000Y-69715000D01*
X83225000Y-69715000D02*
X83225000Y-68715000D01*
X84415000Y-83320000D02*
X84415000Y-84320000D01*
X85765000Y-84320000D02*
X85765000Y-83320000D01*
X89400000Y-68540000D02*
X88400000Y-68540000D01*
X88400000Y-69890000D02*
X89400000Y-69890000D01*
X79541666Y-80997143D02*
X79589285Y-81044762D01*
X79732142Y-81092381D01*
X79827380Y-81092381D01*
X79970238Y-81044762D01*
X80065476Y-80949524D01*
X80113095Y-80854286D01*
X80160714Y-80663810D01*
X80160714Y-80520952D01*
X80113095Y-80330476D01*
X80065476Y-80235238D01*
X79970238Y-80140000D01*
X79827380Y-80092381D01*
X79732142Y-80092381D01*
X79589285Y-80140000D01*
X79541666Y-80187619D01*
X79160714Y-80187619D02*
X79113095Y-80140000D01*
X79017857Y-80092381D01*
X78779761Y-80092381D01*
X78684523Y-80140000D01*
X78636904Y-80187619D01*
X78589285Y-80282857D01*
X78589285Y-80378095D01*
X78636904Y-80520952D01*
X79208333Y-81092381D01*
X78589285Y-81092381D01*
X87357143Y-72223334D02*
X87404762Y-72175715D01*
X87452381Y-72032858D01*
X87452381Y-71937620D01*
X87404762Y-71794762D01*
X87309524Y-71699524D01*
X87214286Y-71651905D01*
X87023810Y-71604286D01*
X86880952Y-71604286D01*
X86690476Y-71651905D01*
X86595238Y-71699524D01*
X86500000Y-71794762D01*
X86452381Y-71937620D01*
X86452381Y-72032858D01*
X86500000Y-72175715D01*
X86547619Y-72223334D01*
X86785714Y-73080477D02*
X87452381Y-73080477D01*
X86404762Y-72842381D02*
X87119048Y-72604286D01*
X87119048Y-73223334D01*
X82716666Y-87357143D02*
X82764285Y-87404762D01*
X82907142Y-87452381D01*
X83002380Y-87452381D01*
X83145238Y-87404762D01*
X83240476Y-87309524D01*
X83288095Y-87214286D01*
X83335714Y-87023810D01*
X83335714Y-86880952D01*
X83288095Y-86690476D01*
X83240476Y-86595238D01*
X83145238Y-86500000D01*
X83002380Y-86452381D01*
X82907142Y-86452381D01*
X82764285Y-86500000D01*
X82716666Y-86547619D01*
X81811904Y-86452381D02*
X82288095Y-86452381D01*
X82335714Y-86928571D01*
X82288095Y-86880952D01*
X82192857Y-86833333D01*
X81954761Y-86833333D01*
X81859523Y-86880952D01*
X81811904Y-86928571D01*
X81764285Y-87023810D01*
X81764285Y-87261905D01*
X81811904Y-87357143D01*
X81859523Y-87404762D01*
X81954761Y-87452381D01*
X82192857Y-87452381D01*
X82288095Y-87404762D01*
X82335714Y-87357143D01*
X74779047Y-78962381D02*
X75255238Y-78962381D01*
X75255238Y-77962381D01*
X74445714Y-78438571D02*
X74112380Y-78438571D01*
X73969523Y-78962381D02*
X74445714Y-78962381D01*
X74445714Y-77962381D01*
X73969523Y-77962381D01*
X73540952Y-78962381D02*
X73540952Y-77962381D01*
X73302857Y-77962381D01*
X73159999Y-78010000D01*
X73064761Y-78105238D01*
X73017142Y-78200476D01*
X72969523Y-78390952D01*
X72969523Y-78533810D01*
X73017142Y-78724286D01*
X73064761Y-78819524D01*
X73159999Y-78914762D01*
X73302857Y-78962381D01*
X73540952Y-78962381D01*
X72017142Y-78962381D02*
X72588571Y-78962381D01*
X72302857Y-78962381D02*
X72302857Y-77962381D01*
X72398095Y-78105238D01*
X72493333Y-78200476D01*
X72588571Y-78248095D01*
X91987619Y-85629762D02*
X91940000Y-85534524D01*
X91844762Y-85439286D01*
X91701905Y-85296429D01*
X91654286Y-85201190D01*
X91654286Y-85105952D01*
X91892381Y-85153571D02*
X91844762Y-85058333D01*
X91749524Y-84963095D01*
X91559048Y-84915476D01*
X91225714Y-84915476D01*
X91035238Y-84963095D01*
X90940000Y-85058333D01*
X90892381Y-85153571D01*
X90892381Y-85344048D01*
X90940000Y-85439286D01*
X91035238Y-85534524D01*
X91225714Y-85582143D01*
X91559048Y-85582143D01*
X91749524Y-85534524D01*
X91844762Y-85439286D01*
X91892381Y-85344048D01*
X91892381Y-85153571D01*
X90892381Y-85915476D02*
X90892381Y-86534524D01*
X91273333Y-86201190D01*
X91273333Y-86344048D01*
X91320952Y-86439286D01*
X91368571Y-86486905D01*
X91463810Y-86534524D01*
X91701905Y-86534524D01*
X91797143Y-86486905D01*
X91844762Y-86439286D01*
X91892381Y-86344048D01*
X91892381Y-86058333D01*
X91844762Y-85963095D01*
X91797143Y-85915476D01*
X92805238Y-78017619D02*
X92900476Y-77970000D01*
X92995714Y-77874762D01*
X93138571Y-77731905D01*
X93233810Y-77684286D01*
X93329048Y-77684286D01*
X93281429Y-77922381D02*
X93376667Y-77874762D01*
X93471905Y-77779524D01*
X93519524Y-77589048D01*
X93519524Y-77255714D01*
X93471905Y-77065238D01*
X93376667Y-76970000D01*
X93281429Y-76922381D01*
X93090952Y-76922381D01*
X92995714Y-76970000D01*
X92900476Y-77065238D01*
X92852857Y-77255714D01*
X92852857Y-77589048D01*
X92900476Y-77779524D01*
X92995714Y-77874762D01*
X93090952Y-77922381D01*
X93281429Y-77922381D01*
X91995714Y-77255714D02*
X91995714Y-77922381D01*
X92233810Y-76874762D02*
X92471905Y-77589048D01*
X91852857Y-77589048D01*
X98237381Y-88733334D02*
X97761190Y-88400000D01*
X98237381Y-88161905D02*
X97237381Y-88161905D01*
X97237381Y-88542858D01*
X97285000Y-88638096D01*
X97332619Y-88685715D01*
X97427857Y-88733334D01*
X97570714Y-88733334D01*
X97665952Y-88685715D01*
X97713571Y-88638096D01*
X97761190Y-88542858D01*
X97761190Y-88161905D01*
X98237381Y-89685715D02*
X98237381Y-89114286D01*
X98237381Y-89400000D02*
X97237381Y-89400000D01*
X97380238Y-89304762D01*
X97475476Y-89209524D01*
X97523095Y-89114286D01*
X66206666Y-79832381D02*
X66540000Y-79356190D01*
X66778095Y-79832381D02*
X66778095Y-78832381D01*
X66397142Y-78832381D01*
X66301904Y-78880000D01*
X66254285Y-78927619D01*
X66206666Y-79022857D01*
X66206666Y-79165714D01*
X66254285Y-79260952D01*
X66301904Y-79308571D01*
X66397142Y-79356190D01*
X66778095Y-79356190D01*
X65349523Y-79165714D02*
X65349523Y-79832381D01*
X65587619Y-78784762D02*
X65825714Y-79499048D01*
X65206666Y-79499048D01*
X84902381Y-69048334D02*
X84426190Y-68715000D01*
X84902381Y-68476905D02*
X83902381Y-68476905D01*
X83902381Y-68857858D01*
X83950000Y-68953096D01*
X83997619Y-69000715D01*
X84092857Y-69048334D01*
X84235714Y-69048334D01*
X84330952Y-69000715D01*
X84378571Y-68953096D01*
X84426190Y-68857858D01*
X84426190Y-68476905D01*
X83902381Y-69953096D02*
X83902381Y-69476905D01*
X84378571Y-69429286D01*
X84330952Y-69476905D01*
X84283333Y-69572143D01*
X84283333Y-69810239D01*
X84330952Y-69905477D01*
X84378571Y-69953096D01*
X84473810Y-70000715D01*
X84711905Y-70000715D01*
X84807143Y-69953096D01*
X84854762Y-69905477D01*
X84902381Y-69810239D01*
X84902381Y-69572143D01*
X84854762Y-69476905D01*
X84807143Y-69429286D01*
X87442381Y-83653334D02*
X86966190Y-83320000D01*
X87442381Y-83081905D02*
X86442381Y-83081905D01*
X86442381Y-83462858D01*
X86490000Y-83558096D01*
X86537619Y-83605715D01*
X86632857Y-83653334D01*
X86775714Y-83653334D01*
X86870952Y-83605715D01*
X86918571Y-83558096D01*
X86966190Y-83462858D01*
X86966190Y-83081905D01*
X86442381Y-84510477D02*
X86442381Y-84320000D01*
X86490000Y-84224762D01*
X86537619Y-84177143D01*
X86680476Y-84081905D01*
X86870952Y-84034286D01*
X87251905Y-84034286D01*
X87347143Y-84081905D01*
X87394762Y-84129524D01*
X87442381Y-84224762D01*
X87442381Y-84415239D01*
X87394762Y-84510477D01*
X87347143Y-84558096D01*
X87251905Y-84605715D01*
X87013810Y-84605715D01*
X86918571Y-84558096D01*
X86870952Y-84510477D01*
X86823333Y-84415239D01*
X86823333Y-84224762D01*
X86870952Y-84129524D01*
X86918571Y-84081905D01*
X87013810Y-84034286D01*
X89066666Y-71567381D02*
X89400000Y-71091190D01*
X89638095Y-71567381D02*
X89638095Y-70567381D01*
X89257142Y-70567381D01*
X89161904Y-70615000D01*
X89114285Y-70662619D01*
X89066666Y-70757857D01*
X89066666Y-70900714D01*
X89114285Y-70995952D01*
X89161904Y-71043571D01*
X89257142Y-71091190D01*
X89638095Y-71091190D01*
X88733333Y-70567381D02*
X88066666Y-70567381D01*
X88495238Y-71567381D01*
M02*
