M48
;DRILL file {KiCad 4.0.3+e1-6302~38~ubuntu16.04.1-stable} date Mon Aug 29 22:28:33 2016
;FORMAT={-:-/ absolute / metric / decimal}
FMAT,2
METRIC,TZ
T1C0.400
T2C0.500
T3C0.800
T4C1.016
%
G90
G05
M71
T1
X64.77Y-78.74
X66.04Y-79.375
X70.485Y-81.915
X71.12Y-80.645
X75.184Y-77.724
X75.565Y-80.01
X78.105Y-77.47
X78.105Y-82.55
X78.74Y-88.265
X80.645Y-71.755
X81.28Y-78.74
X81.28Y-86.995
X81.915Y-79.375
X83.82Y-70.485
X84.455Y-67.31
X86.36Y-72.39
X86.995Y-76.835
X87.63Y-93.345
X88.265Y-88.9
X89.535Y-84.455
X90.805Y-88.9
X93.345Y-93.345
X93.98Y-74.93
X94.615Y-81.915
T2
X69.215Y-73.025
X69.215Y-74.275
X73.025Y-70.485
X73.025Y-71.735
X92.075Y-90.17
X92.075Y-91.42
T3
X88.9Y-75.664
X88.9Y-80.546
T4
X63.5Y-86.36
X63.5Y-88.9
X71.12Y-87.63
X71.12Y-91.44
X71.12Y-95.25
X73.66Y-87.63
X73.66Y-91.44
X73.66Y-95.25
X74.93Y-67.31
X76.2Y-91.44
X77.47Y-67.31
X77.47Y-95.25
X78.74Y-91.44
X80.01Y-95.25
X81.28Y-91.44
X82.55Y-95.25
X82.55Y-100.33
X83.82Y-91.44
X85.09Y-95.25
X85.09Y-100.33
X86.36Y-91.44
X87.63Y-95.25
X88.9Y-91.44
X90.17Y-95.25
X96.52Y-78.74
X96.52Y-81.28
T0
M30
