<?xml version="1.0" standalone="no"?>
 <!DOCTYPE svg PUBLIC "-//W3C//DTD SVG 1.1//EN" 
 "http://www.w3.org/Graphics/SVG/1.1/DTD/svg11.dtd"> 
<svg xmlns="http://www.w3.org/2000/svg" version="1.1" 
    width="29.7002cm" height="21.0007cm" viewBox="0 0 116930 82680 ">
<title>SVG Picture created as foldrone-drl_map.svg date 2016/08/29 22:30:16 </title>
  <desc>Picture generated by PCBNEW </desc>
<g style="fill:#000000; fill-opacity:1;stroke:#000000; stroke-opacity:1;
stroke-linecap:round; stroke-linejoin:round; "
 transform="translate(0 0) scale(1 1)">
</g>
<g style="fill:#000000; fill-opacity:0.0; 
stroke:#000000; stroke-width:-0.000393701; stroke-opacity:1; 
stroke-linecap:round; stroke-linejoin:round;">
</g>
<g style="fill:#000000; fill-opacity:0.0; 
stroke:#000000; stroke-width:39.3701; stroke-opacity:1; 
stroke-linecap:round; stroke-linejoin:round;">
<circle cx="31500" cy="33000" r="7603.45" /> 
</g>
<g style="fill:#000000; fill-opacity:0.0; 
stroke:#000000; stroke-width:78.7402; stroke-opacity:1; 
stroke-linecap:round; stroke-linejoin:round;">
<path d="M25421 30921
L25578 31078
" />
<path d="M25578 30921
L25421 31078
" />
<path d="M25921 31171
L26078 31328
" />
<path d="M26078 31171
L25921 31328
" />
<path d="M27671 32171
L27828 32328
" />
<path d="M27828 32171
L27671 32328
" />
<path d="M27921 31671
L28078 31828
" />
<path d="M28078 31671
L27921 31828
" />
<path d="M29521 30521
L29678 30678
" />
<path d="M29678 30521
L29521 30678
" />
<path d="M29671 31421
L29828 31578
" />
<path d="M29828 31421
L29671 31578
" />
<path d="M30671 30421
L30828 30578
" />
<path d="M30828 30421
L30671 30578
" />
<path d="M30671 32421
L30828 32578
" />
<path d="M30828 32421
L30671 32578
" />
<path d="M30921 34671
L31078 34828
" />
<path d="M31078 34671
L30921 34828
" />
<path d="M31671 28171
L31828 28328
" />
<path d="M31828 28171
L31671 28328
" />
<path d="M31921 30921
L32078 31078
" />
<path d="M32078 30921
L31921 31078
" />
<path d="M31921 34171
L32078 34328
" />
<path d="M32078 34171
L31921 34328
" />
<path d="M32171 31171
L32328 31328
" />
<path d="M32328 31171
L32171 31328
" />
<path d="M32921 27671
L33078 27828
" />
<path d="M33078 27671
L32921 27828
" />
<path d="M33171 26421
L33328 26578
" />
<path d="M33328 26421
L33171 26578
" />
<path d="M33921 28421
L34078 28578
" />
<path d="M34078 28421
L33921 28578
" />
<path d="M34171 30171
L34328 30328
" />
<path d="M34328 30171
L34171 30328
" />
<path d="M34421 36671
L34578 36828
" />
<path d="M34578 36671
L34421 36828
" />
<path d="M34671 34921
L34828 35078
" />
<path d="M34828 34921
L34671 35078
" />
<path d="M35171 33171
L35328 33328
" />
<path d="M35328 33171
L35171 33328
" />
<path d="M35671 34921
L35828 35078
" />
<path d="M35828 34921
L35671 35078
" />
<path d="M36671 36671
L36828 36828
" />
<path d="M36828 36671
L36671 36828
" />
<path d="M36921 29421
L37078 29578
" />
<path d="M37078 29421
L36921 29578
" />
<path d="M37171 32171
L37328 32328
" />
<path d="M37328 32171
L37171 32328
" />
<circle cx="27250" cy="28750" r="98.4252" /> 
<circle cx="27250" cy="29242.1" r="98.4252" /> 
<circle cx="28750" cy="27750" r="98.4252" /> 
<circle cx="28750" cy="28242.1" r="98.4252" /> 
<circle cx="36250" cy="35500" r="98.4252" /> 
<circle cx="36250" cy="35992.1" r="98.4252" /> 
<path d="M35000 29631
L35000 29946
" />
<path d="M34842 29789
L35157 29789
" />
<path d="M35000 31553
L35000 31868
" />
<path d="M34842 31711
L35157 31711
" />
<polyline fill="none;"
points="25141,34141
25141,33858
24858,33858
24858,34141
25141,34141
" /> 
<polyline fill="none;"
points="25141,35141
25141,34858
24858,34858
24858,35141
25141,35141
" /> 
<polyline fill="none;"
points="28141,34641
28141,34358
27858,34358
27858,34641
28141,34641
" /> 
<polyline fill="none;"
points="28141,36141
28141,35858
27858,35858
27858,36141
28141,36141
" /> 
<polyline fill="none;"
points="28141,37641
28141,37358
27858,37358
27858,37641
28141,37641
" /> 
<polyline fill="none;"
points="29141,34641
29141,34358
28858,34358
28858,34641
29141,34641
" /> 
<polyline fill="none;"
points="29141,36141
29141,35858
28858,35858
28858,36141
29141,36141
" /> 
<polyline fill="none;"
points="29141,37641
29141,37358
28858,37358
28858,37641
29141,37641
" /> 
<polyline fill="none;"
points="29641,26641
29641,26358
29358,26358
29358,26641
29641,26641
" /> 
<polyline fill="none;"
points="30141,36141
30141,35858
29858,35858
29858,36141
30141,36141
" /> 
<polyline fill="none;"
points="30641,26641
30641,26358
30358,26358
30358,26641
30641,26641
" /> 
<polyline fill="none;"
points="30641,37641
30641,37358
30358,37358
30358,37641
30641,37641
" /> 
<polyline fill="none;"
points="31141,36141
31141,35858
30858,35858
30858,36141
31141,36141
" /> 
<polyline fill="none;"
points="31641,37641
31641,37358
31358,37358
31358,37641
31641,37641
" /> 
<polyline fill="none;"
points="32141,36141
32141,35858
31858,35858
31858,36141
32141,36141
" /> 
<polyline fill="none;"
points="32641,37641
32641,37358
32358,37358
32358,37641
32641,37641
" /> 
<polyline fill="none;"
points="32641,39641
32641,39358
32358,39358
32358,39641
32641,39641
" /> 
<polyline fill="none;"
points="33141,36141
33141,35858
32858,35858
32858,36141
33141,36141
" /> 
<polyline fill="none;"
points="33641,37641
33641,37358
33358,37358
33358,37641
33641,37641
" /> 
<polyline fill="none;"
points="33641,39641
33641,39358
33358,39358
33358,39641
33641,39641
" /> 
<polyline fill="none;"
points="34141,36141
34141,35858
33858,35858
33858,36141
34141,36141
" /> 
<polyline fill="none;"
points="34641,37641
34641,37358
34358,37358
34358,37641
34641,37641
" /> 
<polyline fill="none;"
points="35141,36141
35141,35858
34858,35858
34858,36141
35141,36141
" /> 
<polyline fill="none;"
points="35641,37641
35641,37358
35358,37358
35358,37641
35641,37641
" /> 
<polyline fill="none;"
points="38141,31141
38141,30858
37858,30858
37858,31141
38141,31141
" /> 
<polyline fill="none;"
points="38141,32141
38141,31858
37858,31858
37858,32141
38141,32141
" /> 
</g>
<g style="fill:#000000; fill-opacity:0.0; 
stroke:#000000; stroke-width:118.11; stroke-opacity:1; 
stroke-linecap:round; stroke-linejoin:round;">
<path d="M24945 42456
L24945 41275
L25226 41275
L25395 41331
L25507 41444
L25564 41556
L25620 41781
L25620 41950
L25564 42175
L25507 42287
L25395 42400
L25226 42456
L24945 42456
" />
<path d="M26126 42456
L26126 41669
" />
<path d="M26126 41894
L26182 41781
L26239 41725
L26351 41669
L26464 41669
" />
<path d="M26857 42456
L26857 41669
" />
<path d="M26857 41275
L26801 41331
L26857 41388
L26913 41331
L26857 41275
L26857 41388
" />
<path d="M27588 42456
L27476 42400
L27420 42287
L27420 41275
" />
<path d="M28207 42456
L28095 42400
L28038 42287
L28038 41275
" />
<path d="M29557 42456
L29557 41275
L29951 42119
L30344 41275
L30344 42456
" />
<path d="M31413 42456
L31413 41837
L31357 41725
L31244 41669
L31019 41669
L30907 41725
" />
<path d="M31413 42400
L31300 42456
L31019 42456
L30907 42400
L30850 42287
L30850 42175
L30907 42062
L31019 42006
L31300 42006
L31413 41950
" />
<path d="M31975 41669
L31975 42850
" />
<path d="M31975 41725
L32088 41669
L32313 41669
L32425 41725
L32482 41781
L32538 41894
L32538 42231
L32482 42344
L32425 42400
L32313 42456
L32088 42456
L31975 42400
" />
<path d="M33044 42344
L33100 42400
L33044 42456
L32988 42400
L33044 42344
L33044 42456
" />
<path d="M33044 41725
L33100 41781
L33044 41837
L32988 41781
L33044 41725
L33044 41837
" />
<path d="M23719 44323
L23876 44481
" />
<path d="M23876 44323
L23719 44481
" />
<path d="M25170 43755
L25282 43755
L25395 43812
L25451 43868
L25507 43980
L25564 44205
L25564 44487
L25507 44712
L25451 44824
L25395 44880
L25282 44936
L25170 44936
L25057 44880
L25001 44824
L24945 44712
L24889 44487
L24889 44205
L24945 43980
L25001 43868
L25057 43812
L25170 43755
" />
<path d="M26070 44824
L26126 44880
L26070 44936
L26014 44880
L26070 44824
L26070 44936
" />
<path d="M27138 44149
L27138 44936
" />
<path d="M26857 43699
L26576 44543
L27307 44543
" />
<path d="M27982 43755
L28095 43755
L28207 43812
L28263 43868
L28320 43980
L28376 44205
L28376 44487
L28320 44712
L28263 44824
L28207 44880
L28095 44936
L27982 44936
L27870 44880
L27813 44824
L27757 44712
L27701 44487
L27701 44205
L27757 43980
L27813 43868
L27870 43812
L27982 43755
" />
<path d="M28882 44936
L28882 44149
" />
<path d="M28882 44262
L28938 44205
L29051 44149
L29219 44149
L29332 44205
L29388 44318
L29388 44936
" />
<path d="M29388 44318
L29444 44205
L29557 44149
L29726 44149
L29838 44205
L29894 44318
L29894 44936
" />
<path d="M30457 44936
L30457 44149
" />
<path d="M30457 44262
L30513 44205
L30626 44149
L30794 44149
L30907 44205
L30963 44318
L30963 44936
" />
<path d="M30963 44318
L31019 44205
L31132 44149
L31300 44149
L31413 44205
L31469 44318
L31469 44936
" />
<path d="M33775 43699
L32763 45218
" />
<path d="M35294 43755
L35406 43755
L35519 43812
L35575 43868
L35631 43980
L35687 44205
L35687 44487
L35631 44712
L35575 44824
L35519 44880
L35406 44936
L35294 44936
L35181 44880
L35125 44824
L35069 44712
L35012 44487
L35012 44205
L35069 43980
L35125 43868
L35181 43812
L35294 43755
" />
<path d="M36194 44824
L36250 44880
L36194 44936
L36137 44880
L36194 44824
L36194 44936
" />
<path d="M36981 43755
L37093 43755
L37206 43812
L37262 43868
L37318 43980
L37375 44205
L37375 44487
L37318 44712
L37262 44824
L37206 44880
L37093 44936
L36981 44936
L36868 44880
L36812 44824
L36756 44712
L36700 44487
L36700 44205
L36756 43980
L36812 43868
L36868 43812
L36981 43755
" />
<path d="M38500 44936
L37825 44936
" />
<path d="M38162 44936
L38162 43755
L38050 43924
L37937 44037
L37825 44093
" />
<path d="M39512 43755
L39287 43755
L39174 43812
L39118 43868
L39006 44037
L38949 44262
L38949 44712
L39006 44824
L39062 44880
L39174 44936
L39399 44936
L39512 44880
L39568 44824
L39624 44712
L39624 44430
L39568 44318
L39512 44262
L39399 44205
L39174 44205
L39062 44262
L39006 44318
L38949 44430
" />
<path d="M40074 43755
L40074 43980
" />
<path d="M40524 43755
L40524 43980
" />
<path d="M42268 45386
L42212 45330
L42099 45161
L42043 45049
L41987 44880
L41930 44599
L41930 44374
L41987 44093
L42043 43924
L42099 43812
L42212 43643
L42268 43587
" />
<path d="M42662 43868
L42718 43812
L42830 43755
L43111 43755
L43224 43812
L43280 43868
L43336 43980
L43336 44093
L43280 44262
L42605 44936
L43336 44936
" />
<path d="M44349 44149
L44349 44936
" />
<path d="M44068 43699
L43786 44543
L44518 44543
" />
<path d="M45867 44936
L45867 43755
" />
<path d="M46374 44936
L46374 44318
L46317 44205
L46205 44149
L46036 44149
L45924 44205
L45867 44262
" />
<path d="M47105 44936
L46992 44880
L46936 44824
L46880 44712
L46880 44374
L46936 44262
L46992 44205
L47105 44149
L47273 44149
L47386 44205
L47442 44262
L47498 44374
L47498 44712
L47442 44824
L47386 44880
L47273 44936
L47105 44936
" />
<path d="M48173 44936
L48061 44880
L48005 44768
L48005 43755
" />
<path d="M49073 44880
L48961 44936
L48736 44936
L48623 44880
L48567 44768
L48567 44318
L48623 44205
L48736 44149
L48961 44149
L49073 44205
L49129 44318
L49129 44430
L48567 44543
" />
<path d="M49579 44880
L49692 44936
L49917 44936
L50029 44880
L50086 44768
L50086 44712
L50029 44599
L49917 44543
L49748 44543
L49636 44487
L49579 44374
L49579 44318
L49636 44205
L49748 44149
L49917 44149
L50029 44205
" />
<path d="M50479 45386
L50536 45330
L50648 45161
L50704 45049
L50761 44880
L50817 44599
L50817 44374
L50761 44093
L50704 43924
L50648 43812
L50536 43643
L50479 43587
" />
<circle cx="23778.4" cy="45961.7" r="98.4252" /> 
<path d="M25170 45314
L25282 45314
L25395 45371
L25451 45427
L25507 45539
L25564 45764
L25564 46046
L25507 46271
L25451 46383
L25395 46439
L25282 46496
L25170 46496
L25057 46439
L25001 46383
L24945 46271
L24889 46046
L24889 45764
L24945 45539
L25001 45427
L25057 45371
L25170 45314
" />
<path d="M26070 46383
L26126 46439
L26070 46496
L26014 46439
L26070 46383
L26070 46496
" />
<path d="M27195 45314
L26632 45314
L26576 45877
L26632 45821
L26745 45764
L27026 45764
L27138 45821
L27195 45877
L27251 45989
L27251 46271
L27195 46383
L27138 46439
L27026 46496
L26745 46496
L26632 46439
L26576 46383
" />
<path d="M27982 45314
L28095 45314
L28207 45371
L28263 45427
L28320 45539
L28376 45764
L28376 46046
L28320 46271
L28263 46383
L28207 46439
L28095 46496
L27982 46496
L27870 46439
L27813 46383
L27757 46271
L27701 46046
L27701 45764
L27757 45539
L27813 45427
L27870 45371
L27982 45314
" />
<path d="M28882 46496
L28882 45708
" />
<path d="M28882 45821
L28938 45764
L29051 45708
L29219 45708
L29332 45764
L29388 45877
L29388 46496
" />
<path d="M29388 45877
L29444 45764
L29557 45708
L29726 45708
L29838 45764
L29894 45877
L29894 46496
" />
<path d="M30457 46496
L30457 45708
" />
<path d="M30457 45821
L30513 45764
L30626 45708
L30794 45708
L30907 45764
L30963 45877
L30963 46496
" />
<path d="M30963 45877
L31019 45764
L31132 45708
L31300 45708
L31413 45764
L31469 45877
L31469 46496
" />
<path d="M33775 45258
L32763 46777
" />
<path d="M35294 45314
L35406 45314
L35519 45371
L35575 45427
L35631 45539
L35687 45764
L35687 46046
L35631 46271
L35575 46383
L35519 46439
L35406 46496
L35294 46496
L35181 46439
L35125 46383
L35069 46271
L35012 46046
L35012 45764
L35069 45539
L35125 45427
L35181 45371
L35294 45314
" />
<path d="M36194 46383
L36250 46439
L36194 46496
L36137 46439
L36194 46383
L36194 46496
" />
<path d="M36981 45314
L37093 45314
L37206 45371
L37262 45427
L37318 45539
L37375 45764
L37375 46046
L37318 46271
L37262 46383
L37206 46439
L37093 46496
L36981 46496
L36868 46439
L36812 46383
L36756 46271
L36700 46046
L36700 45764
L36756 45539
L36812 45427
L36868 45371
L36981 45314
" />
<path d="M37825 45427
L37881 45371
L37993 45314
L38275 45314
L38387 45371
L38443 45427
L38500 45539
L38500 45652
L38443 45821
L37768 46496
L38500 46496
" />
<path d="M39231 45314
L39343 45314
L39456 45371
L39512 45427
L39568 45539
L39624 45764
L39624 46046
L39568 46271
L39512 46383
L39456 46439
L39343 46496
L39231 46496
L39118 46439
L39062 46383
L39006 46271
L38949 46046
L38949 45764
L39006 45539
L39062 45427
L39118 45371
L39231 45314
" />
<path d="M40074 45314
L40074 45539
" />
<path d="M40524 45314
L40524 45539
" />
<path d="M42268 46945
L42212 46889
L42099 46721
L42043 46608
L41987 46439
L41930 46158
L41930 45933
L41987 45652
L42043 45483
L42099 45371
L42212 45202
L42268 45146
" />
<path d="M43224 45314
L42999 45314
L42886 45371
L42830 45427
L42718 45596
L42662 45821
L42662 46271
L42718 46383
L42774 46439
L42886 46496
L43111 46496
L43224 46439
L43280 46383
L43336 46271
L43336 45989
L43280 45877
L43224 45821
L43111 45764
L42886 45764
L42774 45821
L42718 45877
L42662 45989
" />
<path d="M44743 46496
L44743 45314
" />
<path d="M45249 46496
L45249 45877
L45192 45764
L45080 45708
L44911 45708
L44799 45764
L44743 45821
" />
<path d="M45980 46496
L45867 46439
L45811 46383
L45755 46271
L45755 45933
L45811 45821
L45867 45764
L45980 45708
L46149 45708
L46261 45764
L46317 45821
L46374 45933
L46374 46271
L46317 46383
L46261 46439
L46149 46496
L45980 46496
" />
<path d="M47048 46496
L46936 46439
L46880 46327
L46880 45314
" />
<path d="M47948 46439
L47836 46496
L47611 46496
L47498 46439
L47442 46327
L47442 45877
L47498 45764
L47611 45708
L47836 45708
L47948 45764
L48005 45877
L48005 45989
L47442 46102
" />
<path d="M48455 46439
L48567 46496
L48792 46496
L48904 46439
L48961 46327
L48961 46271
L48904 46158
L48792 46102
L48623 46102
L48511 46046
L48455 45933
L48455 45877
L48511 45764
L48623 45708
L48792 45708
L48904 45764
" />
<path d="M49354 46945
L49411 46889
L49523 46721
L49579 46608
L49636 46439
L49692 46158
L49692 45933
L49636 45652
L49579 45483
L49523 45371
L49411 45202
L49354 45146
" />
<path d="M23719 47363
L23719 47678
" />
<path d="M23561 47520
L23876 47520
" />
<path d="M25170 46873
L25282 46873
L25395 46930
L25451 46986
L25507 47098
L25564 47323
L25564 47605
L25507 47830
L25451 47942
L25395 47998
L25282 48055
L25170 48055
L25057 47998
L25001 47942
L24945 47830
L24889 47605
L24889 47323
L24945 47098
L25001 46986
L25057 46930
L25170 46873
" />
<path d="M26070 47942
L26126 47998
L26070 48055
L26014 47998
L26070 47942
L26070 48055
" />
<path d="M26801 47380
L26689 47323
L26632 47267
L26576 47155
L26576 47098
L26632 46986
L26689 46930
L26801 46873
L27026 46873
L27138 46930
L27195 46986
L27251 47098
L27251 47155
L27195 47267
L27138 47323
L27026 47380
L26801 47380
L26689 47436
L26632 47492
L26576 47605
L26576 47830
L26632 47942
L26689 47998
L26801 48055
L27026 48055
L27138 47998
L27195 47942
L27251 47830
L27251 47605
L27195 47492
L27138 47436
L27026 47380
" />
<path d="M27982 46873
L28095 46873
L28207 46930
L28263 46986
L28320 47098
L28376 47323
L28376 47605
L28320 47830
L28263 47942
L28207 47998
L28095 48055
L27982 48055
L27870 47998
L27813 47942
L27757 47830
L27701 47605
L27701 47323
L27757 47098
L27813 46986
L27870 46930
L27982 46873
" />
<path d="M28882 48055
L28882 47267
" />
<path d="M28882 47380
L28938 47323
L29051 47267
L29219 47267
L29332 47323
L29388 47436
L29388 48055
" />
<path d="M29388 47436
L29444 47323
L29557 47267
L29726 47267
L29838 47323
L29894 47436
L29894 48055
" />
<path d="M30457 48055
L30457 47267
" />
<path d="M30457 47380
L30513 47323
L30626 47267
L30794 47267
L30907 47323
L30963 47436
L30963 48055
" />
<path d="M30963 47436
L31019 47323
L31132 47267
L31300 47267
L31413 47323
L31469 47436
L31469 48055
" />
<path d="M33775 46817
L32763 48336
" />
<path d="M35294 46873
L35406 46873
L35519 46930
L35575 46986
L35631 47098
L35687 47323
L35687 47605
L35631 47830
L35575 47942
L35519 47998
L35406 48055
L35294 48055
L35181 47998
L35125 47942
L35069 47830
L35012 47605
L35012 47323
L35069 47098
L35125 46986
L35181 46930
L35294 46873
" />
<path d="M36194 47942
L36250 47998
L36194 48055
L36137 47998
L36194 47942
L36194 48055
" />
<path d="M36981 46873
L37093 46873
L37206 46930
L37262 46986
L37318 47098
L37375 47323
L37375 47605
L37318 47830
L37262 47942
L37206 47998
L37093 48055
L36981 48055
L36868 47998
L36812 47942
L36756 47830
L36700 47605
L36700 47323
L36756 47098
L36812 46986
L36868 46930
L36981 46873
" />
<path d="M37768 46873
L38500 46873
L38106 47323
L38275 47323
L38387 47380
L38443 47436
L38500 47548
L38500 47830
L38443 47942
L38387 47998
L38275 48055
L37937 48055
L37825 47998
L37768 47942
" />
<path d="M38949 46986
L39006 46930
L39118 46873
L39399 46873
L39512 46930
L39568 46986
L39624 47098
L39624 47211
L39568 47380
L38893 48055
L39624 48055
" />
<path d="M40074 46873
L40074 47098
" />
<path d="M40524 46873
L40524 47098
" />
<path d="M42268 48505
L42212 48448
L42099 48280
L42043 48167
L41987 47998
L41930 47717
L41930 47492
L41987 47211
L42043 47042
L42099 46930
L42212 46761
L42268 46705
" />
<path d="M42662 46986
L42718 46930
L42830 46873
L43111 46873
L43224 46930
L43280 46986
L43336 47098
L43336 47211
L43280 47380
L42605 48055
L43336 48055
" />
<path d="M44743 48055
L44743 46873
" />
<path d="M45249 48055
L45249 47436
L45192 47323
L45080 47267
L44911 47267
L44799 47323
L44743 47380
" />
<path d="M45980 48055
L45867 47998
L45811 47942
L45755 47830
L45755 47492
L45811 47380
L45867 47323
L45980 47267
L46149 47267
L46261 47323
L46317 47380
L46374 47492
L46374 47830
L46317 47942
L46261 47998
L46149 48055
L45980 48055
" />
<path d="M47048 48055
L46936 47998
L46880 47886
L46880 46873
" />
<path d="M47948 47998
L47836 48055
L47611 48055
L47498 47998
L47442 47886
L47442 47436
L47498 47323
L47611 47267
L47836 47267
L47948 47323
L48005 47436
L48005 47548
L47442 47661
" />
<path d="M48455 47998
L48567 48055
L48792 48055
L48904 47998
L48961 47886
L48961 47830
L48904 47717
L48792 47661
L48623 47661
L48511 47605
L48455 47492
L48455 47436
L48511 47323
L48623 47267
L48792 47267
L48904 47323
" />
<path d="M49354 48505
L49411 48448
L49523 48280
L49579 48167
L49636 47998
L49692 47717
L49692 47492
L49636 47211
L49579 47042
L49523 46930
L49411 46761
L49354 46705
" />
<polyline fill="none;"
points="23818,49221
23818,48938
23535,48938
23535,49221
23818,49221
" /> 
<path d="M25564 49614
L24889 49614
" />
<path d="M25226 49614
L25226 48433
L25114 48601
L25001 48714
L24889 48770
" />
<path d="M26070 49501
L26126 49557
L26070 49614
L26014 49557
L26070 49501
L26070 49614
" />
<path d="M26857 48433
L26970 48433
L27082 48489
L27138 48545
L27195 48658
L27251 48882
L27251 49164
L27195 49389
L27138 49501
L27082 49557
L26970 49614
L26857 49614
L26745 49557
L26689 49501
L26632 49389
L26576 49164
L26576 48882
L26632 48658
L26689 48545
L26745 48489
L26857 48433
" />
<path d="M27701 48545
L27757 48489
L27870 48433
L28151 48433
L28263 48489
L28320 48545
L28376 48658
L28376 48770
L28320 48939
L27645 49614
L28376 49614
" />
<path d="M28882 49614
L28882 48826
" />
<path d="M28882 48939
L28938 48882
L29051 48826
L29219 48826
L29332 48882
L29388 48995
L29388 49614
" />
<path d="M29388 48995
L29444 48882
L29557 48826
L29726 48826
L29838 48882
L29894 48995
L29894 49614
" />
<path d="M30457 49614
L30457 48826
" />
<path d="M30457 48939
L30513 48882
L30626 48826
L30794 48826
L30907 48882
L30963 48995
L30963 49614
" />
<path d="M30963 48995
L31019 48882
L31132 48826
L31300 48826
L31413 48882
L31469 48995
L31469 49614
" />
<path d="M33775 48376
L32763 49895
" />
<path d="M35294 48433
L35406 48433
L35519 48489
L35575 48545
L35631 48658
L35687 48882
L35687 49164
L35631 49389
L35575 49501
L35519 49557
L35406 49614
L35294 49614
L35181 49557
L35125 49501
L35069 49389
L35012 49164
L35012 48882
L35069 48658
L35125 48545
L35181 48489
L35294 48433
" />
<path d="M36194 49501
L36250 49557
L36194 49614
L36137 49557
L36194 49501
L36194 49614
" />
<path d="M36981 48433
L37093 48433
L37206 48489
L37262 48545
L37318 48658
L37375 48882
L37375 49164
L37318 49389
L37262 49501
L37206 49557
L37093 49614
L36981 49614
L36868 49557
L36812 49501
L36756 49389
L36700 49164
L36700 48882
L36756 48658
L36812 48545
L36868 48489
L36981 48433
" />
<path d="M38387 48826
L38387 49614
" />
<path d="M38106 48376
L37825 49220
L38556 49220
" />
<path d="M39231 48433
L39343 48433
L39456 48489
L39512 48545
L39568 48658
L39624 48882
L39624 49164
L39568 49389
L39512 49501
L39456 49557
L39343 49614
L39231 49614
L39118 49557
L39062 49501
L39006 49389
L38949 49164
L38949 48882
L39006 48658
L39062 48545
L39118 48489
L39231 48433
" />
<path d="M40074 48433
L40074 48658
" />
<path d="M40524 48433
L40524 48658
" />
<path d="M42268 50064
L42212 50007
L42099 49839
L42043 49726
L41987 49557
L41930 49276
L41930 49051
L41987 48770
L42043 48601
L42099 48489
L42212 48320
L42268 48264
" />
<path d="M42662 48545
L42718 48489
L42830 48433
L43111 48433
L43224 48489
L43280 48545
L43336 48658
L43336 48770
L43280 48939
L42605 49614
L43336 49614
" />
<path d="M44349 48433
L44124 48433
L44011 48489
L43955 48545
L43843 48714
L43786 48939
L43786 49389
L43843 49501
L43899 49557
L44011 49614
L44236 49614
L44349 49557
L44405 49501
L44461 49389
L44461 49107
L44405 48995
L44349 48939
L44236 48882
L44011 48882
L43899 48939
L43843 48995
L43786 49107
" />
<path d="M45867 49614
L45867 48433
" />
<path d="M46374 49614
L46374 48995
L46317 48882
L46205 48826
L46036 48826
L45924 48882
L45867 48939
" />
<path d="M47105 49614
L46992 49557
L46936 49501
L46880 49389
L46880 49051
L46936 48939
L46992 48882
L47105 48826
L47273 48826
L47386 48882
L47442 48939
L47498 49051
L47498 49389
L47442 49501
L47386 49557
L47273 49614
L47105 49614
" />
<path d="M48173 49614
L48061 49557
L48005 49445
L48005 48433
" />
<path d="M49073 49557
L48961 49614
L48736 49614
L48623 49557
L48567 49445
L48567 48995
L48623 48882
L48736 48826
L48961 48826
L49073 48882
L49129 48995
L49129 49107
L48567 49220
" />
<path d="M49579 49557
L49692 49614
L49917 49614
L50029 49557
L50086 49445
L50086 49389
L50029 49276
L49917 49220
L49748 49220
L49636 49164
L49579 49051
L49579 48995
L49636 48882
L49748 48826
L49917 48826
L50029 48882
" />
<path d="M50479 50064
L50536 50007
L50648 49839
L50704 49726
L50761 49557
L50817 49276
L50817 49051
L50761 48770
L50704 48601
L50648 48489
L50536 48320
L50479 48264
" />
</g> 
</svg>
